<?xml version="1.0" encoding="utf-8"?>
<!-- Generator: Adobe Illustrator 24.2.1, SVG Export Plug-In . SVG Version: 6.00 Build 0)  -->
<svg version="1.1" xmlns="http://www.w3.org/2000/svg" xmlns:xlink="http://www.w3.org/1999/xlink" x="0px" y="0px"
	 viewBox="0 0 400 225" style="enable-background:new 0 0 400 225;" xml:space="preserve">
<style type="text/css">
	.st0{clip-path:url(#Clip_1_);fill:url(#Back_Color_1_);}
	.st1{clip-path:url(#Clip_1_);}
	.st2{fill:url(#SVGID_1_);}
	.st3{fill:url(#SVGID_2_);}
	.st4{fill:url(#SVGID_3_);}
	.st5{fill:url(#SVGID_4_);}
	.st6{fill:url(#SVGID_5_);}
	.st7{fill:url(#SVGID_6_);}
	.st8{fill:url(#SVGID_7_);}
	.st9{fill:url(#SVGID_8_);}
	.st10{fill:url(#SVGID_9_);}
	.st11{fill:url(#SVGID_10_);}
	.st12{fill:url(#SVGID_11_);}
	.st13{fill:url(#SVGID_12_);}
	.st14{fill:url(#SVGID_13_);}
	.st15{fill:url(#SVGID_14_);}
	.st16{fill:url(#SVGID_15_);}
	.st17{fill:url(#SVGID_16_);}
	.st18{fill:url(#SVGID_17_);}
	.st19{fill:url(#SVGID_18_);}
	.st20{fill:url(#SVGID_19_);}
	.st21{fill:url(#SVGID_20_);}
	.st22{fill:#FFFFFF;}
	.st23{opacity:0.7;}
	.st24{fill:url(#SVGID_21_);}
	.st25{fill:url(#SVGID_22_);}
	.st26{fill:url(#SVGID_23_);}
	.st27{fill:url(#SVGID_24_);}
	.st28{fill:url(#SVGID_25_);}
	.st29{fill:url(#SVGID_26_);}
	.st30{fill:url(#SVGID_27_);}
	.st31{fill:url(#SVGID_28_);}
	.st32{fill:url(#SVGID_29_);}
	.st33{fill:url(#SVGID_30_);}
	.st34{fill:url(#SVGID_31_);}
	.st35{fill:url(#SVGID_32_);}
	.st36{fill:url(#SVGID_33_);}
	.st37{fill:url(#SVGID_34_);}
	.st38{fill:url(#SVGID_35_);}
	.st39{fill:url(#SVGID_36_);}
	.st40{fill:url(#SVGID_37_);}
	.st41{fill:url(#SVGID_38_);}
	.st42{fill:url(#SVGID_39_);}
	.st43{fill:url(#SVGID_40_);}
	.st44{fill:url(#SVGID_41_);}
	.st45{fill:url(#SVGID_42_);}
	.st46{fill:url(#SVGID_43_);}
	.st47{fill:url(#SVGID_44_);}
	.st48{fill:url(#SVGID_45_);}
	.st49{fill:url(#SVGID_46_);}
	.st50{fill:url(#SVGID_47_);}
	.st51{fill:url(#SVGID_48_);}
	.st52{fill:url(#SVGID_49_);}
	.st53{fill:url(#SVGID_50_);}
	.st54{fill:url(#SVGID_51_);}
	.st55{fill:url(#SVGID_52_);}
</style>
<g id="Background">
	<g id="Background_Design">
		<defs>
			<rect id="Clip" width="400" height="225"/>
		</defs>
		<clipPath id="Clip_1_">
			<use xlink:href="#Clip"  style="overflow:visible;"/>
		</clipPath>
		<linearGradient id="Back_Color_1_" gradientUnits="userSpaceOnUse" x1="110.4852" y1="-165.9905" x2="220.0063" y2="174.7419">
			<stop  offset="0" style="stop-color:#39375B"/>
			<stop  offset="1" style="stop-color:#070E19"/>
		</linearGradient>
		<rect id="Back_Color" class="st0" width="400" height="225"/>
		<g id="Bottom_Shape" class="st1">
			<linearGradient id="SVGID_1_" gradientUnits="userSpaceOnUse" x1="113.8006" y1="87.2122" x2="167.0344" y2="158.6052">
				<stop  offset="0" style="stop-color:#00FFFF"/>
				<stop  offset="0.4841" style="stop-color:#29ABE2"/>
				<stop  offset="1" style="stop-color:#662D91"/>
			</linearGradient>
			<path class="st2" d="M400,180.63V225H0v-15.61c-0.02-0.01-0.04-0.03-0.04-0.04c0.01,0.01,0.03,0.01,0.04,0.02
				c16.22,7.93,41.13,6.88,71.35,1.63c11.57-2.02,23.91-4.64,36.85-7.62c3.5-0.8,7.05-1.63,10.64-2.49
				c19.06-4.53,39.24-9.63,59.97-14.5c18.48-4.35,37.4-8.51,56.35-11.94c4.06-0.74,8.12-1.43,12.18-2.1
				c15.25-2.48,30.48-4.39,45.46-5.45c13.4-0.95,26.6-1.22,39.46-0.59c2.71,0.13,5.4,0.3,8.07,0.52c0.06,0.01,0.13,0.01,0.2,0.01
				c15.2,1.22,29.87,3.79,43.74,8.06c2.56,0.78,5.09,1.63,7.59,2.52C394.61,178.43,397.32,179.49,400,180.63z"/>
			<linearGradient id="SVGID_2_" gradientUnits="userSpaceOnUse" x1="94.3704" y1="84.9408" x2="185.1763" y2="187.7211">
				<stop  offset="0" style="stop-color:#00FFFF"/>
				<stop  offset="0.4841" style="stop-color:#29ABE2"/>
				<stop  offset="1" style="stop-color:#662D91"/>
			</linearGradient>
			<path class="st3" d="M400,184v41H0v-15.61c10.15,10.61,27.21,13.87,49.07,12.75c8.4-0.43,17.51-1.51,27.22-3.07h0.01
				c3.51-0.56,7.09-1.19,10.75-1.87c0.02-0.01,0.03-0.01,0.04-0.01c5.35-1,10.85-2.12,16.49-3.32c8.15-1.75,16.59-3.69,25.26-5.74
				c8.1-1.93,16.41-3.95,24.87-6.03c8.06-1.97,16.26-3.98,24.57-5.97c0.02,0,0.04-0.01,0.06-0.01
				c27.98-6.71,57.17-13.26,86.13-17.63c5.91-0.9,11.82-1.69,17.71-2.38c0.29-0.04,0.57-0.07,0.86-0.1c22.72-2.63,45.1-3.63,66.44-2
				C367.17,175.34,384.14,178.49,400,184z"/>
			<linearGradient id="SVGID_3_" gradientUnits="userSpaceOnUse" x1="344.6569" y1="163.5261" x2="174.9317" y2="258.2564">
				<stop  offset="0" style="stop-color:#00FFFF"/>
				<stop  offset="0.4841" style="stop-color:#29ABE2"/>
				<stop  offset="1" style="stop-color:#662D91"/>
			</linearGradient>
			<path class="st4" d="M400,182.09V225H91.57c0.5-0.48,1.01-0.96,1.53-1.44c3.39-3.22,6.87-6.45,10.48-9.69
				c0.46-0.43,0.93-0.85,1.41-1.27c4.42-3.93,9.01-7.85,13.85-11.7c2.25-1.78,4.54-3.55,6.91-5.3c6.43-4.78,13.32-9.41,20.78-13.79
				c15.09-8.85,32.54-16.66,53.47-22.55c15.55-4.38,69.57-17.97,131-4.33c4.75,1.05,20.31,4.67,39.02,12.28
				c3.56,1.44,7.24,3.03,10.98,4.78c2.38,1.11,4.78,2.29,7.19,3.53c1.22,0.62,2.44,1.26,3.67,1.91c0.86,0.47,1.73,0.95,2.59,1.43
				c0.86,0.48,1.73,0.98,2.59,1.47C398.03,180.91,399.02,181.49,400,182.09z"/>
			<linearGradient id="SVGID_4_" gradientUnits="userSpaceOnUse" x1="256.1792" y1="183.2938" x2="242.0421" y2="145.2101">
				<stop  offset="0" style="stop-color:#00FFFF"/>
				<stop  offset="0.4841" style="stop-color:#29ABE2"/>
				<stop  offset="1" style="stop-color:#662D91"/>
			</linearGradient>
			<path class="st5" d="M400,177.96V225H125.86c0.52-0.48,1.05-0.96,1.59-1.44c0.83-0.77,1.68-1.52,2.54-2.29
				c7.04-6.27,14.53-12.49,22.75-18.46c0.32-0.24,0.64-0.48,0.97-0.71c5.58-4.02,11.49-7.91,17.82-11.62
				c2.37-1.39,4.79-2.75,7.28-4.07c8.63-4.64,18.02-8.92,28.34-12.7c0.06-0.02,0.12-0.04,0.18-0.07c5.6-2.05,11.49-3.96,17.67-5.7
				c15.55-4.38,69.57-17.97,131-4.33c2.34,0.53,7.33,1.67,14.02,3.61c8.01,2.32,18.47,5.78,29.8,10.69
				C399.88,177.9,399.94,177.93,400,177.96z"/>
			<g>
				<linearGradient id="SVGID_5_" gradientUnits="userSpaceOnUse" x1="263.9696" y1="172.9622" x2="59.6759" y2="326.4349">
					<stop  offset="0" style="stop-color:#00FFFF"/>
					<stop  offset="0.4841" style="stop-color:#29ABE2"/>
					<stop  offset="1" style="stop-color:#662D91"/>
				</linearGradient>
				<path class="st6" d="M346,225H43.4c1.88-0.95,3.77-1.9,5.67-2.86c1.64-0.83,3.3-1.66,4.96-2.5c5.71-2.88,11.47-5.78,17.32-8.64
					c23.06-11.31,47.48-22.14,75.18-29.2c18.6-4.75,38.67-7.8,60.8-8.18c0.18,0,0.36,0,0.53-0.01c0,0,0.01,0,0.02,0
					c3.97-0.06,8.01-0.03,12.12,0.09c3.77,0.11,8.96,0.29,15.16,0.76c3.52,0.26,7.37,0.62,11.47,1.12c5.56,0.68,11.57,1.6,17.84,2.9
					c2.13,0.43,4.3,0.92,6.48,1.45c5.61,1.34,11.37,3.01,17.14,5.04c2.1,0.74,4.21,1.54,6.32,2.38c7.71,3.11,15.35,6.93,22.59,11.64
					c9.86,6.41,19.93,15.08,27.81,24.56C345.22,224.03,345.61,224.52,346,225z"/>
			</g>
			<g>
				<linearGradient id="SVGID_6_" gradientUnits="userSpaceOnUse" x1="215.3268" y1="253.2528" x2="180.2927" y2="138.5162">
					<stop  offset="0" style="stop-color:#00FFFF"/>
					<stop  offset="5.516434e-03" style="stop-color:#01FEFF"/>
					<stop  offset="0.2909" style="stop-color:#1EC2EA"/>
					<stop  offset="0.4273" style="stop-color:#29ABE2"/>
					<stop  offset="0.5202" style="stop-color:#309DD9"/>
					<stop  offset="0.6947" style="stop-color:#4179C2"/>
					<stop  offset="0.9304" style="stop-color:#5D3F9D"/>
					<stop  offset="1" style="stop-color:#662D91"/>
				</linearGradient>
				<path class="st7" d="M329,198.99c-9.22-6-19.08-10.56-28.91-14.02c-14.6-5.14-29.14-7.89-41.46-9.39
					c-11.29-1.37-20.72-1.71-26.63-1.88c-27.22-0.79-51.39,2.46-73.47,8.1c-34.73,8.85-64.3,23.61-92.5,37.84
					c-3.57,1.8-7.11,3.59-10.63,5.36H358C349.95,214.96,339.36,205.72,329,198.99z"/>
			</g>
			<linearGradient id="SVGID_7_" gradientUnits="userSpaceOnUse" x1="248.6339" y1="252.7023" x2="198.9438" y2="136.4206">
				<stop  offset="0" style="stop-color:#00FFFF"/>
				<stop  offset="0.4841" style="stop-color:#29ABE2"/>
				<stop  offset="1" style="stop-color:#662D91"/>
			</linearGradient>
			<path class="st8" d="M400,181.49V225H55c74.63-11.3,109.25-21.1,127-28.18c5.59-2.23,29.76-12.25,64.63-21.24
				c4.69-1.21,8.53-2.13,10.9-2.69h0.01c11.28-2.6,23.02-4.73,35.26-5.98c13.06-1.35,26.72-1.72,41.04-0.65
				c2.15,0.16,4.31,0.35,6.49,0.58c0.06,0.01,0.13,0.01,0.2,0.01c1.98,0.21,3.97,0.45,5.97,0.71c11.49,1.52,22.19,3.82,32.09,6.65
				c1.93,0.55,5.26,1.52,9.32,2.87C392.68,178.67,396.74,180.19,400,181.49z"/>
			<linearGradient id="SVGID_8_" gradientUnits="userSpaceOnUse" x1="288.5865" y1="283.8697" x2="261.7897" y2="156.4362">
				<stop  offset="0" style="stop-color:#00FFFF"/>
				<stop  offset="0.4841" style="stop-color:#29ABE2"/>
				<stop  offset="1" style="stop-color:#662D91"/>
			</linearGradient>
			<path class="st9" d="M400,178.18V225H142.57c2.02-0.47,4.03-0.95,6.01-1.44c50.01-12.39,87.19-30.99,122.37-43.62
				c3.76-1.36,7.5-2.64,11.23-3.84c0.17-0.06,0.34-0.12,0.51-0.17c16.33-5.23,32.48-8.85,49.57-9.61c0.52-0.03,1.05-0.04,1.58-0.06
				c14.76-0.51,30.24,1.13,47.16,5.72c5.56,1.51,11.27,3.34,17.17,5.51C398.78,177.72,399.39,177.94,400,178.18z"/>
			<linearGradient id="SVGID_9_" gradientUnits="userSpaceOnUse" x1="299.3686" y1="285.3641" x2="260.4539" y2="168.2106">
				<stop  offset="0" style="stop-color:#00FFFF"/>
				<stop  offset="0.4841" style="stop-color:#29ABE2"/>
				<stop  offset="1" style="stop-color:#662D91"/>
			</linearGradient>
			<path class="st10" d="M399.82,177.89c0.06,0.01,0.12,0.02,0.18,0.04V225H143c18.67-0.64,42.39-2.47,69.23-7.13
				c17.37-3.01,38.28-6.64,62.77-15.27c40.05-14.11,45.41-25.98,73-29.62C368.91,170.22,387.52,174.19,399.82,177.89z"/>
			<linearGradient id="SVGID_10_" gradientUnits="userSpaceOnUse" x1="339.3664" y1="315.308" x2="285.1608" y2="169.9154">
				<stop  offset="0" style="stop-color:#00FFFF"/>
				<stop  offset="0.4841" style="stop-color:#29ABE2"/>
				<stop  offset="1" style="stop-color:#662D91"/>
			</linearGradient>
			<path class="st11" d="M400,178.34V225H194c-0.11-2.07,78.81,4.55,124-23.84c5.99-3.76,19.57-13.28,42-18.78
				C375.92,178.47,390.28,178.06,400,178.34z"/>
		</g>
		<g id="Top_Shape" class="st1">
			
				<linearGradient id="SVGID_11_" gradientUnits="userSpaceOnUse" x1="61.7606" y1="-41.7878" x2="114.9944" y2="29.6052" gradientTransform="matrix(-1 0 0 -1 347.96 96)">
				<stop  offset="0" style="stop-color:#662D91"/>
				<stop  offset="0.5159" style="stop-color:#29ABE2"/>
				<stop  offset="1" style="stop-color:#00FFFF"/>
			</linearGradient>
			<path class="st12" d="M0,44.37V0h400v15.61c0.02,0.01,0.04,0.03,0.04,0.04c-0.01-0.01-0.03-0.01-0.04-0.02
				c-16.22-7.93-41.13-6.88-71.35-1.63c-11.57,2.02-23.91,4.64-36.85,7.62c-3.5,0.8-7.05,1.63-10.64,2.49
				c-19.06,4.53-39.24,9.63-59.97,14.5c-18.48,4.35-37.4,8.51-56.35,11.94c-4.06,0.74-8.12,1.43-12.18,2.1
				c-15.25,2.48-30.48,4.39-45.46,5.45c-13.4,0.95-26.6,1.22-39.46,0.59c-2.71-0.13-5.4-0.3-8.07-0.52
				c-0.06-0.01-0.13-0.01-0.2-0.01c-15.2-1.22-29.87-3.79-43.74-8.06c-2.56-0.78-5.09-1.63-7.59-2.52C5.39,46.57,2.68,45.51,0,44.37
				z"/>
			
				<linearGradient id="SVGID_12_" gradientUnits="userSpaceOnUse" x1="42.3304" y1="-44.0592" x2="133.1364" y2="58.7211" gradientTransform="matrix(-1 0 0 -1 347.96 96)">
				<stop  offset="0" style="stop-color:#662D91"/>
				<stop  offset="0.5159" style="stop-color:#29ABE2"/>
				<stop  offset="1" style="stop-color:#00FFFF"/>
			</linearGradient>
			<path class="st13" d="M0,41V0h400v15.61C389.85,5.01,372.79,1.74,350.93,2.86c-8.4,0.43-17.51,1.51-27.22,3.07h-0.01
				c-3.51,0.56-7.09,1.19-10.75,1.87c-0.02,0.01-0.03,0.01-0.04,0.01c-5.35,1-10.85,2.12-16.49,3.32
				c-8.15,1.75-16.59,3.69-25.26,5.74c-8.1,1.93-16.41,3.95-24.87,6.03c-8.06,1.97-16.26,3.98-24.57,5.97
				c-0.02,0-0.04,0.01-0.06,0.01c-27.98,6.71-57.17,13.26-86.13,17.63c-5.91,0.9-11.82,1.69-17.71,2.38
				c-0.29,0.04-0.57,0.07-0.86,0.1c-22.72,2.63-45.1,3.63-66.44,2C32.83,49.66,15.86,46.51,0,41z"/>
			
				<linearGradient id="SVGID_13_" gradientUnits="userSpaceOnUse" x1="319.2238" y1="19.6757" x2="149.4987" y2="114.406" gradientTransform="matrix(-1 0 0 -1 347.96 96)">
				<stop  offset="0" style="stop-color:#662D91"/>
				<stop  offset="0.5159" style="stop-color:#29ABE2"/>
				<stop  offset="1" style="stop-color:#00FFFF"/>
			</linearGradient>
			<path class="st14" d="M0,42.91V0h308.43c-0.5,0.48-1.01,0.96-1.53,1.44c-3.39,3.22-6.87,6.45-10.48,9.69
				c-0.46,0.43-0.93,0.85-1.41,1.27c-4.42,3.93-9.01,7.85-13.85,11.7c-2.25,1.78-4.54,3.55-6.91,5.3
				c-6.43,4.78-13.32,9.41-20.78,13.79c-15.09,8.85-32.54,16.66-53.47,22.55c-15.55,4.38-69.57,17.97-131,4.33
				c-4.75-1.05-20.31-4.67-39.02-12.28c-3.56-1.44-7.24-3.03-10.98-4.78c-2.38-1.11-4.78-2.29-7.19-3.53
				c-1.22-0.62-2.44-1.26-3.67-1.91c-0.86-0.47-1.73-0.95-2.59-1.43c-0.86-0.48-1.73-0.98-2.59-1.47C1.97,44.09,0.98,43.51,0,42.91z
				"/>
			<linearGradient id="SVGID_14_" gradientUnits="userSpaceOnUse" x1="32.0693" y1="39.778" x2="219.3369" y2="3.2709">
				<stop  offset="0" style="stop-color:#662D91"/>
				<stop  offset="0.8265" style="stop-color:#29ABE2"/>
				<stop  offset="1" style="stop-color:#00FFFF"/>
			</linearGradient>
			<path class="st15" d="M0,47.04V0h274.14c-0.52,0.48-1.05,0.96-1.59,1.44c-0.83,0.77-1.68,1.52-2.54,2.29
				c-7.04,6.27-14.53,12.49-22.75,18.46c-0.32,0.24-0.64,0.48-0.97,0.71c-5.58,4.02-11.49,7.91-17.82,11.62
				c-2.37,1.39-4.79,2.75-7.28,4.07c-8.63,4.64-18.02,8.92-28.34,12.7c-0.06,0.02-0.12,0.04-0.18,0.07
				c-5.6,2.05-11.49,3.96-17.67,5.7c-15.55,4.38-69.57,17.97-131,4.33c-2.34-0.53-7.33-1.67-14.02-3.61
				c-8.01-2.32-18.47-5.78-29.8-10.69C0.12,47.1,0.06,47.07,0,47.04z"/>
			<g>
				
					<linearGradient id="SVGID_15_" gradientUnits="userSpaceOnUse" x1="211.9296" y1="43.9622" x2="7.6359" y2="197.435" gradientTransform="matrix(-1 0 0 -1 347.96 96)">
					<stop  offset="0" style="stop-color:#662D91"/>
					<stop  offset="0.5159" style="stop-color:#29ABE2"/>
					<stop  offset="1" style="stop-color:#00FFFF"/>
				</linearGradient>
				<path class="st16" d="M54,0h302.6c-1.88,0.95-3.77,1.9-5.67,2.86c-1.64,0.83-3.3,1.66-4.96,2.5
					c-5.71,2.88-11.47,5.78-17.32,8.64c-23.06,11.31-47.48,22.14-75.18,29.2c-18.6,4.75-38.67,7.8-60.8,8.18
					c-0.18,0-0.36,0-0.53,0.01c0,0-0.01,0-0.02,0c-3.97,0.06-8.01,0.03-12.12-0.09c-3.77-0.11-8.96-0.29-15.16-0.76
					c-3.52-0.26-7.37-0.62-11.47-1.12c-5.56-0.68-11.57-1.6-17.84-2.9c-2.13-0.43-4.3-0.92-6.48-1.45
					c-5.61-1.34-11.37-3.01-17.14-5.04c-2.1-0.74-4.21-1.54-6.32-2.38C97.88,34.54,90.24,30.72,83,26.01
					C73.14,19.6,63.07,10.93,55.19,1.44C54.78,0.97,54.39,0.48,54,0z"/>
			</g>
			<g>
				
					<linearGradient id="SVGID_16_" gradientUnits="userSpaceOnUse" x1="163.2868" y1="124.2528" x2="128.2528" y2="9.5162" gradientTransform="matrix(-1 0 0 -1 347.96 96)">
					<stop  offset="0" style="stop-color:#662D91"/>
					<stop  offset="0.0696" style="stop-color:#5D3F9D"/>
					<stop  offset="0.3053" style="stop-color:#4179C2"/>
					<stop  offset="0.4798" style="stop-color:#309DD9"/>
					<stop  offset="0.5727" style="stop-color:#29ABE2"/>
					<stop  offset="0.7091" style="stop-color:#1EC2EA"/>
					<stop  offset="0.9945" style="stop-color:#01FEFF"/>
					<stop  offset="1" style="stop-color:#00FFFF"/>
				</linearGradient>
				<path class="st17" d="M71,26.01c9.22,6,19.08,10.56,28.91,14.02c14.6,5.14,29.14,7.89,41.46,9.39
					c11.29,1.37,20.72,1.71,26.63,1.88c27.22,0.79,51.39-2.46,73.47-8.1c34.73-8.85,64.3-23.61,92.5-37.84
					c3.57-1.8,7.11-3.59,10.63-5.36H42C50.05,10.04,60.64,19.28,71,26.01z"/>
			</g>
			
				<linearGradient id="SVGID_17_" gradientUnits="userSpaceOnUse" x1="196.594" y1="123.7023" x2="146.9038" y2="7.4206" gradientTransform="matrix(-1 0 0 -1 347.96 96)">
				<stop  offset="0" style="stop-color:#662D91"/>
				<stop  offset="0.5159" style="stop-color:#29ABE2"/>
				<stop  offset="1" style="stop-color:#00FFFF"/>
			</linearGradient>
			<path class="st18" d="M0,43.51V0h345c-74.63,11.3-109.25,21.11-127,28.18c-5.59,2.23-29.76,12.25-64.63,21.24
				c-4.69,1.21-8.53,2.13-10.9,2.69h-0.01c-11.28,2.6-23.02,4.73-35.26,5.98c-13.06,1.35-26.72,1.72-41.04,0.65
				c-2.15-0.16-4.31-0.35-6.49-0.58c-0.06-0.01-0.13-0.01-0.2-0.01c-1.98-0.21-3.97-0.45-5.97-0.71
				c-11.49-1.52-22.19-3.82-32.09-6.65c-1.93-0.55-5.26-1.52-9.32-2.87C7.32,46.33,3.26,44.81,0,43.51z"/>
			
				<linearGradient id="SVGID_18_" gradientUnits="userSpaceOnUse" x1="236.5465" y1="154.8697" x2="209.7497" y2="27.4362" gradientTransform="matrix(-1 0 0 -1 347.96 96)">
				<stop  offset="0" style="stop-color:#662D91"/>
				<stop  offset="0.5159" style="stop-color:#29ABE2"/>
				<stop  offset="1" style="stop-color:#00FFFF"/>
			</linearGradient>
			<path class="st19" d="M0,46.82V0h257.43c-2.02,0.47-4.03,0.95-6.01,1.44c-50.01,12.39-87.19,30.99-122.37,43.62
				c-3.76,1.36-7.5,2.64-11.23,3.84c-0.17,0.06-0.34,0.12-0.51,0.17c-16.33,5.23-32.48,8.85-49.57,9.61
				c-0.52,0.03-1.05,0.04-1.58,0.06C51.4,59.25,35.92,57.6,19,53.02c-5.56-1.51-11.27-3.34-17.17-5.51
				C1.22,47.28,0.61,47.06,0,46.82z"/>
			
				<linearGradient id="SVGID_19_" gradientUnits="userSpaceOnUse" x1="247.3286" y1="156.3641" x2="208.4139" y2="39.2106" gradientTransform="matrix(-1 0 0 -1 347.96 96)">
				<stop  offset="0" style="stop-color:#662D91"/>
				<stop  offset="0.5159" style="stop-color:#29ABE2"/>
				<stop  offset="1" style="stop-color:#00FFFF"/>
			</linearGradient>
			<path class="st20" d="M0.18,47.11C0.12,47.11,0.06,47.09,0,47.07V0h257c-18.67,0.64-42.39,2.47-69.23,7.13
				C170.4,10.14,149.49,13.77,125,22.4C84.95,36.5,79.59,48.38,52,52.02C31.09,54.78,12.48,50.81,0.18,47.11z"/>
			
				<linearGradient id="SVGID_20_" gradientUnits="userSpaceOnUse" x1="287.3264" y1="186.308" x2="233.1208" y2="40.9154" gradientTransform="matrix(-1 0 0 -1 347.96 96)">
				<stop  offset="0" style="stop-color:#662D91"/>
				<stop  offset="0.5159" style="stop-color:#29ABE2"/>
				<stop  offset="1" style="stop-color:#00FFFF"/>
			</linearGradient>
			<path class="st21" d="M0,46.66V0h206c0.11,2.07-78.81-4.55-124,23.84c-5.99,3.76-19.57,13.28-42,18.78
				C24.08,46.53,9.72,46.94,0,46.66z"/>
		</g>
		<g id="Lines" class="st1">
			<g>
				<path class="st22" d="M417.65-7.94C390.3-1.65,364.27,7.97,340,20.76c-21.92,11.56-37.76,23.22-51.73,33.52
					c-20.64,15.2-36.94,27.21-61.57,29.77c-18.55,1.93-37.64-1.85-57.78-11.61c0,0-0.62,0.13-0.98,0.19
					c6.99,3.41,13.97,6.21,20.75,8.21c9.71,2.87,19.34,4.3,28.75,4.3c3.13,0,6.25-0.16,9.32-0.48c24.8-2.58,41.16-14.63,61.87-29.89
					c13.95-10.28,29.77-21.93,51.65-33.47c24.14-12.73,50.03-22.31,77.22-28.59C417.54-7.5,417.59-7.73,417.65-7.94z"/>
			</g>
			<g>
				<path class="st22" d="M-52.48,68.18L-53,67.84C-30.12,32.62-3.98,12.22,24.71,7.21c24.98-4.36,42.42,4.33,62.63,14.39
					c18.05,8.99,38.51,19.19,67.87,20.57c30.16,1.42,47.93-7.48,68.5-17.79c15.69-7.86,33.46-16.77,59.95-22.84
					c22.48-5.15,46.17-7,70.41-5.5c31.38,1.94,64.67,9.52,98.94,22.53l-0.22,0.58C392.03-3.9,335.17-9.62,283.79,2.15
					c-26.41,6.05-44.16,14.94-59.81,22.79c-19.18,9.61-35.93,18.01-62.52,18.01c-2.04,0-4.13-0.05-6.29-0.15
					c-29.48-1.39-50.01-11.61-68.11-20.63C66.95,12.15,49.59,3.5,24.81,7.83C-3.69,12.8-29.7,33.11-52.48,68.18z"/>
			</g>
			<g>
				<path class="st22" d="M326.61,175.22c-17.25,5.68-28.6,14.79-39.58,23.59c-4.55,3.64-9.25,7.41-14.24,10.82
					c-12.96,8.83-27.44,14.84-43.38,18.03c0.26,0.2,0.49,0.45,0.68,0.71c15.7-3.25,30.14-9.3,43-18.06
					c5.02-3.42,9.73-7.2,14.29-10.85c10.93-8.76,22.23-17.82,39.35-23.46c24.89-8.2,51.58-5.79,79.33,7.16l0.31-0.75
					C378.49,169.39,351.65,166.97,326.61,175.22z"/>
			</g>
			<g>
				<path class="st22" d="M-15.15,234.72c-11.58-0.52-23.26-1.52-35.07-3l0.08-0.63c61.07,7.67,119.25,2.44,172.93-15.56
					c24.23-8.12,41.04-16.59,57.29-24.77c18.56-9.35,36.09-18.17,61.61-24.35c24.04-5.82,49.41-7.84,75.4-6
					c32.8,2.31,67.63,10.8,103.5,25.23l-0.23,0.59c-64.28-25.85-124.35-32.32-178.53-19.21c-25.45,6.16-42.95,14.97-61.48,24.3
					c-16.27,8.19-33.1,16.67-57.37,24.8C79.59,230.68,33.26,236.9-15.15,234.72z"/>
			</g>
			<g>
				<path class="st22" d="M270.83,180.17c0.02,0,0.05,0,0.07,0c-29.99-11.34-58.49-14.15-84.97-8.26
					c-20.57,4.58-33.97,13.07-48.16,22.06c-12,7.61-24.41,15.47-42.41,22.03c-36.04,13.14-77.51,14.27-123.27,3.36l-0.14,0.6
					c3.44,0.82,6.86,1.57,10.26,2.26c22.09,4.46,43.24,6.06,63,4.77c17.63-1.15,34.57-4.66,50.37-10.41
					c18.06-6.58,30.5-14.47,42.53-22.09c14.14-8.96,27.5-17.43,47.96-21.98c26.08-5.8,54.13-3.13,83.66,7.87
					C270.08,180.25,270.45,180.17,270.83,180.17z"/>
			</g>
			<g>
				<path class="st22" d="M403.9,97.52c0.03,0,0.07,0.01,0.1,0.01c-43.05-24.35-83.96-30.37-121.98-17.72
					c-29.53,9.83-48.77,28.06-69.13,47.36c-17.23,16.33-35.05,33.22-60.87,47.3c-51.74,28.21-111.27,30.64-176.95,7.22l-0.21,1.3
					c4.94,1.76,9.85,3.38,14.73,4.85c31.71,9.57,62.07,13.02,90.43,10.24c25.31-2.47,49.63-10,72.3-22.36
					c25.92-14.13,43.78-31.06,61.05-47.43c20.3-19.24,39.47-37.41,68.85-47.18c37.44-12.46,77.71-6.72,120.09,16.89
					C402.81,97.68,403.35,97.51,403.9,97.52z"/>
			</g>
		</g>
		<g id="Ball" class="st1">
			<g>
				<g class="st23">
					<radialGradient id="SVGID_21_" cx="74" cy="39" r="23" gradientUnits="userSpaceOnUse">
						<stop  offset="0" style="stop-color:#000000"/>
						<stop  offset="0.0101" style="stop-color:#040404"/>
						<stop  offset="0.1748" style="stop-color:#464646"/>
						<stop  offset="0.337" style="stop-color:#7E7E7E"/>
						<stop  offset="0.4925" style="stop-color:#ACACAC"/>
						<stop  offset="0.64" style="stop-color:#D0D0D0"/>
						<stop  offset="0.7776" style="stop-color:#EAEAEA"/>
						<stop  offset="0.9016" style="stop-color:#FAFAFA"/>
						<stop  offset="1" style="stop-color:#FFFFFF"/>
					</radialGradient>
					<circle class="st24" cx="74" cy="39" r="23"/>
					<radialGradient id="SVGID_22_" cx="72" cy="42" r="23" gradientUnits="userSpaceOnUse">
						<stop  offset="0" style="stop-color:#000000"/>
						<stop  offset="0.0101" style="stop-color:#040404"/>
						<stop  offset="0.1748" style="stop-color:#464646"/>
						<stop  offset="0.337" style="stop-color:#7E7E7E"/>
						<stop  offset="0.4925" style="stop-color:#ACACAC"/>
						<stop  offset="0.64" style="stop-color:#D0D0D0"/>
						<stop  offset="0.7776" style="stop-color:#EAEAEA"/>
						<stop  offset="0.9016" style="stop-color:#FAFAFA"/>
						<stop  offset="1" style="stop-color:#FFFFFF"/>
					</radialGradient>
					<circle class="st25" cx="72" cy="42" r="23"/>
					<radialGradient id="SVGID_23_" cx="70" cy="45" r="23" gradientUnits="userSpaceOnUse">
						<stop  offset="0" style="stop-color:#000000"/>
						<stop  offset="0.0101" style="stop-color:#040404"/>
						<stop  offset="0.1748" style="stop-color:#464646"/>
						<stop  offset="0.337" style="stop-color:#7E7E7E"/>
						<stop  offset="0.4925" style="stop-color:#ACACAC"/>
						<stop  offset="0.64" style="stop-color:#D0D0D0"/>
						<stop  offset="0.7776" style="stop-color:#EAEAEA"/>
						<stop  offset="0.9016" style="stop-color:#FAFAFA"/>
						<stop  offset="1" style="stop-color:#FFFFFF"/>
					</radialGradient>
					<circle class="st26" cx="70" cy="45" r="23"/>
				</g>
				<radialGradient id="SVGID_24_" cx="92.6901" cy="10.1408" r="52.7817" gradientUnits="userSpaceOnUse">
					<stop  offset="0" style="stop-color:#00FFFF"/>
					<stop  offset="0.4841" style="stop-color:#29ABE2"/>
					<stop  offset="1" style="stop-color:#662D91"/>
				</radialGradient>
				<circle class="st27" cx="82.62" cy="29.54" r="22.33"/>
			</g>
			<g>
				<g class="st23">
					<radialGradient id="SVGID_25_" cx="359.1541" cy="55.1845" r="9.5474" gradientUnits="userSpaceOnUse">
						<stop  offset="0" style="stop-color:#000000"/>
						<stop  offset="0.0101" style="stop-color:#040404"/>
						<stop  offset="0.1748" style="stop-color:#464646"/>
						<stop  offset="0.337" style="stop-color:#7E7E7E"/>
						<stop  offset="0.4925" style="stop-color:#ACACAC"/>
						<stop  offset="0.64" style="stop-color:#D0D0D0"/>
						<stop  offset="0.7776" style="stop-color:#EAEAEA"/>
						<stop  offset="0.9016" style="stop-color:#FAFAFA"/>
						<stop  offset="1" style="stop-color:#FFFFFF"/>
					</radialGradient>
					<circle class="st28" cx="359.15" cy="55.18" r="9.55"/>
					<radialGradient id="SVGID_26_" cx="358.3239" cy="56.4298" r="9.5474" gradientUnits="userSpaceOnUse">
						<stop  offset="0" style="stop-color:#000000"/>
						<stop  offset="0.0101" style="stop-color:#040404"/>
						<stop  offset="0.1748" style="stop-color:#464646"/>
						<stop  offset="0.337" style="stop-color:#7E7E7E"/>
						<stop  offset="0.4925" style="stop-color:#ACACAC"/>
						<stop  offset="0.64" style="stop-color:#D0D0D0"/>
						<stop  offset="0.7776" style="stop-color:#EAEAEA"/>
						<stop  offset="0.9016" style="stop-color:#FAFAFA"/>
						<stop  offset="1" style="stop-color:#FFFFFF"/>
					</radialGradient>
					<circle class="st29" cx="358.32" cy="56.43" r="9.55"/>
					<radialGradient id="SVGID_27_" cx="357.4937" cy="57.6751" r="9.5474" gradientUnits="userSpaceOnUse">
						<stop  offset="0" style="stop-color:#000000"/>
						<stop  offset="0.0101" style="stop-color:#040404"/>
						<stop  offset="0.1748" style="stop-color:#464646"/>
						<stop  offset="0.337" style="stop-color:#7E7E7E"/>
						<stop  offset="0.4925" style="stop-color:#ACACAC"/>
						<stop  offset="0.64" style="stop-color:#D0D0D0"/>
						<stop  offset="0.7776" style="stop-color:#EAEAEA"/>
						<stop  offset="0.9016" style="stop-color:#FAFAFA"/>
						<stop  offset="1" style="stop-color:#FFFFFF"/>
					</radialGradient>
					<circle class="st30" cx="357.49" cy="57.68" r="9.55"/>
				</g>
				<radialGradient id="SVGID_28_" cx="366.9124" cy="43.2049" r="21.91" gradientUnits="userSpaceOnUse">
					<stop  offset="0" style="stop-color:#00FFFF"/>
					<stop  offset="0.4841" style="stop-color:#29ABE2"/>
					<stop  offset="1" style="stop-color:#662D91"/>
				</radialGradient>
				<circle class="st31" cx="362.73" cy="51.26" r="9.27"/>
			</g>
			<g>
				<g class="st23">
					<radialGradient id="SVGID_29_" cx="366.2007" cy="146.8582" r="20.6612" gradientUnits="userSpaceOnUse">
						<stop  offset="0" style="stop-color:#000000"/>
						<stop  offset="0.0101" style="stop-color:#040404"/>
						<stop  offset="0.1748" style="stop-color:#464646"/>
						<stop  offset="0.337" style="stop-color:#7E7E7E"/>
						<stop  offset="0.4925" style="stop-color:#ACACAC"/>
						<stop  offset="0.64" style="stop-color:#D0D0D0"/>
						<stop  offset="0.7776" style="stop-color:#EAEAEA"/>
						<stop  offset="0.9016" style="stop-color:#FAFAFA"/>
						<stop  offset="1" style="stop-color:#FFFFFF"/>
					</radialGradient>
					<circle class="st32" cx="366.2" cy="146.86" r="20.66"/>
					<radialGradient id="SVGID_30_" cx="364.404" cy="149.5531" r="20.6612" gradientUnits="userSpaceOnUse">
						<stop  offset="0" style="stop-color:#000000"/>
						<stop  offset="0.0101" style="stop-color:#040404"/>
						<stop  offset="0.1748" style="stop-color:#464646"/>
						<stop  offset="0.337" style="stop-color:#7E7E7E"/>
						<stop  offset="0.4925" style="stop-color:#ACACAC"/>
						<stop  offset="0.64" style="stop-color:#D0D0D0"/>
						<stop  offset="0.7776" style="stop-color:#EAEAEA"/>
						<stop  offset="0.9016" style="stop-color:#FAFAFA"/>
						<stop  offset="1" style="stop-color:#FFFFFF"/>
					</radialGradient>
					<circle class="st33" cx="364.4" cy="149.55" r="20.66"/>
					<radialGradient id="SVGID_31_" cx="362.6074" cy="152.2481" r="20.6612" gradientUnits="userSpaceOnUse">
						<stop  offset="0" style="stop-color:#000000"/>
						<stop  offset="0.0101" style="stop-color:#040404"/>
						<stop  offset="0.1748" style="stop-color:#464646"/>
						<stop  offset="0.337" style="stop-color:#7E7E7E"/>
						<stop  offset="0.4925" style="stop-color:#ACACAC"/>
						<stop  offset="0.64" style="stop-color:#D0D0D0"/>
						<stop  offset="0.7776" style="stop-color:#EAEAEA"/>
						<stop  offset="0.9016" style="stop-color:#FAFAFA"/>
						<stop  offset="1" style="stop-color:#FFFFFF"/>
					</radialGradient>
					<circle class="st34" cx="362.61" cy="152.25" r="20.66"/>
				</g>
				<radialGradient id="SVGID_32_" cx="382.9902" cy="120.9337" r="47.4145" gradientUnits="userSpaceOnUse">
					<stop  offset="0" style="stop-color:#00FFFF"/>
					<stop  offset="0.4841" style="stop-color:#29ABE2"/>
					<stop  offset="1" style="stop-color:#662D91"/>
				</radialGradient>
				<circle class="st35" cx="373.94" cy="138.36" r="20.06"/>
			</g>
			<g>
				<g class="st23">
					<radialGradient id="SVGID_33_" cx="251.4282" cy="29.9907" r="6.3522" gradientUnits="userSpaceOnUse">
						<stop  offset="0" style="stop-color:#000000"/>
						<stop  offset="0.0101" style="stop-color:#040404"/>
						<stop  offset="0.1748" style="stop-color:#464646"/>
						<stop  offset="0.337" style="stop-color:#7E7E7E"/>
						<stop  offset="0.4925" style="stop-color:#ACACAC"/>
						<stop  offset="0.64" style="stop-color:#D0D0D0"/>
						<stop  offset="0.7776" style="stop-color:#EAEAEA"/>
						<stop  offset="0.9016" style="stop-color:#FAFAFA"/>
						<stop  offset="1" style="stop-color:#FFFFFF"/>
					</radialGradient>
					<circle class="st36" cx="251.43" cy="29.99" r="6.35"/>
					<radialGradient id="SVGID_34_" cx="250.8758" cy="30.8193" r="6.3522" gradientUnits="userSpaceOnUse">
						<stop  offset="0" style="stop-color:#000000"/>
						<stop  offset="0.0101" style="stop-color:#040404"/>
						<stop  offset="0.1748" style="stop-color:#464646"/>
						<stop  offset="0.337" style="stop-color:#7E7E7E"/>
						<stop  offset="0.4925" style="stop-color:#ACACAC"/>
						<stop  offset="0.64" style="stop-color:#D0D0D0"/>
						<stop  offset="0.7776" style="stop-color:#EAEAEA"/>
						<stop  offset="0.9016" style="stop-color:#FAFAFA"/>
						<stop  offset="1" style="stop-color:#FFFFFF"/>
					</radialGradient>
					<circle class="st37" cx="250.88" cy="30.82" r="6.35"/>
					<radialGradient id="SVGID_35_" cx="250.3235" cy="31.6478" r="6.3522" gradientUnits="userSpaceOnUse">
						<stop  offset="0" style="stop-color:#000000"/>
						<stop  offset="0.0101" style="stop-color:#040404"/>
						<stop  offset="0.1748" style="stop-color:#464646"/>
						<stop  offset="0.337" style="stop-color:#7E7E7E"/>
						<stop  offset="0.4925" style="stop-color:#ACACAC"/>
						<stop  offset="0.64" style="stop-color:#D0D0D0"/>
						<stop  offset="0.7776" style="stop-color:#EAEAEA"/>
						<stop  offset="0.9016" style="stop-color:#FAFAFA"/>
						<stop  offset="1" style="stop-color:#FFFFFF"/>
					</radialGradient>
					<circle class="st38" cx="250.32" cy="31.65" r="6.35"/>
				</g>
				<radialGradient id="SVGID_36_" cx="256.59" cy="22.0204" r="14.5773" gradientUnits="userSpaceOnUse">
					<stop  offset="0" style="stop-color:#00FFFF"/>
					<stop  offset="0.4841" style="stop-color:#29ABE2"/>
					<stop  offset="1" style="stop-color:#662D91"/>
				</radialGradient>
				<circle class="st39" cx="253.81" cy="27.38" r="6.17"/>
			</g>
			<g>
				<g class="st23">
					<radialGradient id="SVGID_37_" cx="27.7341" cy="193.3946" r="37.756" gradientUnits="userSpaceOnUse">
						<stop  offset="0" style="stop-color:#000000"/>
						<stop  offset="0.0101" style="stop-color:#040404"/>
						<stop  offset="0.1748" style="stop-color:#464646"/>
						<stop  offset="0.337" style="stop-color:#7E7E7E"/>
						<stop  offset="0.4925" style="stop-color:#ACACAC"/>
						<stop  offset="0.64" style="stop-color:#D0D0D0"/>
						<stop  offset="0.7776" style="stop-color:#EAEAEA"/>
						<stop  offset="0.9016" style="stop-color:#FAFAFA"/>
						<stop  offset="1" style="stop-color:#FFFFFF"/>
					</radialGradient>
					<circle class="st40" cx="27.73" cy="193.39" r="37.76"/>
					<radialGradient id="SVGID_38_" cx="24.451" cy="198.3193" r="37.756" gradientUnits="userSpaceOnUse">
						<stop  offset="0" style="stop-color:#000000"/>
						<stop  offset="0.0101" style="stop-color:#040404"/>
						<stop  offset="0.1748" style="stop-color:#464646"/>
						<stop  offset="0.337" style="stop-color:#7E7E7E"/>
						<stop  offset="0.4925" style="stop-color:#ACACAC"/>
						<stop  offset="0.64" style="stop-color:#D0D0D0"/>
						<stop  offset="0.7776" style="stop-color:#EAEAEA"/>
						<stop  offset="0.9016" style="stop-color:#FAFAFA"/>
						<stop  offset="1" style="stop-color:#FFFFFF"/>
					</radialGradient>
					<circle class="st41" cx="24.45" cy="198.32" r="37.76"/>
					<radialGradient id="SVGID_39_" cx="21.1679" cy="203.244" r="37.756" gradientUnits="userSpaceOnUse">
						<stop  offset="0" style="stop-color:#000000"/>
						<stop  offset="0.0101" style="stop-color:#040404"/>
						<stop  offset="0.1748" style="stop-color:#464646"/>
						<stop  offset="0.337" style="stop-color:#7E7E7E"/>
						<stop  offset="0.4925" style="stop-color:#ACACAC"/>
						<stop  offset="0.64" style="stop-color:#D0D0D0"/>
						<stop  offset="0.7776" style="stop-color:#EAEAEA"/>
						<stop  offset="0.9016" style="stop-color:#FAFAFA"/>
						<stop  offset="1" style="stop-color:#FFFFFF"/>
					</radialGradient>
					<circle class="st42" cx="21.17" cy="203.24" r="37.76"/>
				</g>
				<radialGradient id="SVGID_40_" cx="58.4152" cy="146.0203" r="86.6447" gradientUnits="userSpaceOnUse">
					<stop  offset="0" style="stop-color:#00FFFF"/>
					<stop  offset="0.4841" style="stop-color:#29ABE2"/>
					<stop  offset="1" style="stop-color:#662D91"/>
				</radialGradient>
				<circle class="st43" cx="41.88" cy="177.87" r="36.65"/>
			</g>
			<g>
				<g class="st23">
					<radialGradient id="SVGID_41_" cx="79.9498" cy="114.3288" r="11.9289" gradientUnits="userSpaceOnUse">
						<stop  offset="0" style="stop-color:#000000"/>
						<stop  offset="0.0101" style="stop-color:#040404"/>
						<stop  offset="0.1748" style="stop-color:#464646"/>
						<stop  offset="0.337" style="stop-color:#7E7E7E"/>
						<stop  offset="0.4925" style="stop-color:#ACACAC"/>
						<stop  offset="0.64" style="stop-color:#D0D0D0"/>
						<stop  offset="0.7776" style="stop-color:#EAEAEA"/>
						<stop  offset="0.9016" style="stop-color:#FAFAFA"/>
						<stop  offset="1" style="stop-color:#FFFFFF"/>
					</radialGradient>
					<circle class="st44" cx="79.95" cy="114.33" r="11.93"/>
					<radialGradient id="SVGID_42_" cx="78.9125" cy="115.8848" r="11.9289" gradientUnits="userSpaceOnUse">
						<stop  offset="0" style="stop-color:#000000"/>
						<stop  offset="0.0101" style="stop-color:#040404"/>
						<stop  offset="0.1748" style="stop-color:#464646"/>
						<stop  offset="0.337" style="stop-color:#7E7E7E"/>
						<stop  offset="0.4925" style="stop-color:#ACACAC"/>
						<stop  offset="0.64" style="stop-color:#D0D0D0"/>
						<stop  offset="0.7776" style="stop-color:#EAEAEA"/>
						<stop  offset="0.9016" style="stop-color:#FAFAFA"/>
						<stop  offset="1" style="stop-color:#FFFFFF"/>
					</radialGradient>
					<circle class="st45" cx="78.91" cy="115.88" r="11.93"/>
					<radialGradient id="SVGID_43_" cx="77.8752" cy="117.4407" r="11.9289" gradientUnits="userSpaceOnUse">
						<stop  offset="0" style="stop-color:#000000"/>
						<stop  offset="0.0101" style="stop-color:#040404"/>
						<stop  offset="0.1748" style="stop-color:#464646"/>
						<stop  offset="0.337" style="stop-color:#7E7E7E"/>
						<stop  offset="0.4925" style="stop-color:#ACACAC"/>
						<stop  offset="0.64" style="stop-color:#D0D0D0"/>
						<stop  offset="0.7776" style="stop-color:#EAEAEA"/>
						<stop  offset="0.9016" style="stop-color:#FAFAFA"/>
						<stop  offset="1" style="stop-color:#FFFFFF"/>
					</radialGradient>
					<circle class="st46" cx="77.88" cy="117.44" r="11.93"/>
				</g>
				<radialGradient id="SVGID_44_" cx="89.6434" cy="99.361" r="27.3752" gradientUnits="userSpaceOnUse">
					<stop  offset="0" style="stop-color:#00FFFF"/>
					<stop  offset="0.4841" style="stop-color:#29ABE2"/>
					<stop  offset="1" style="stop-color:#662D91"/>
				</radialGradient>
				<circle class="st47" cx="84.42" cy="109.42" r="11.58"/>
			</g>
			<g>
				<g class="st23">
					<radialGradient id="SVGID_45_" cx="135.4946" cy="91.9438" r="5.5782" gradientUnits="userSpaceOnUse">
						<stop  offset="0" style="stop-color:#000000"/>
						<stop  offset="0.0101" style="stop-color:#040404"/>
						<stop  offset="0.1748" style="stop-color:#464646"/>
						<stop  offset="0.337" style="stop-color:#7E7E7E"/>
						<stop  offset="0.4925" style="stop-color:#ACACAC"/>
						<stop  offset="0.64" style="stop-color:#D0D0D0"/>
						<stop  offset="0.7776" style="stop-color:#EAEAEA"/>
						<stop  offset="0.9016" style="stop-color:#FAFAFA"/>
						<stop  offset="1" style="stop-color:#FFFFFF"/>
					</radialGradient>
					<circle class="st48" cx="135.49" cy="91.94" r="5.58"/>
					<radialGradient id="SVGID_46_" cx="135.0095" cy="92.6714" r="5.5782" gradientUnits="userSpaceOnUse">
						<stop  offset="0" style="stop-color:#000000"/>
						<stop  offset="0.0101" style="stop-color:#040404"/>
						<stop  offset="0.1748" style="stop-color:#464646"/>
						<stop  offset="0.337" style="stop-color:#7E7E7E"/>
						<stop  offset="0.4925" style="stop-color:#ACACAC"/>
						<stop  offset="0.64" style="stop-color:#D0D0D0"/>
						<stop  offset="0.7776" style="stop-color:#EAEAEA"/>
						<stop  offset="0.9016" style="stop-color:#FAFAFA"/>
						<stop  offset="1" style="stop-color:#FFFFFF"/>
					</radialGradient>
					<circle class="st49" cx="135.01" cy="92.67" r="5.58"/>
					<radialGradient id="SVGID_47_" cx="134.5244" cy="93.399" r="5.5782" gradientUnits="userSpaceOnUse">
						<stop  offset="0" style="stop-color:#000000"/>
						<stop  offset="0.0101" style="stop-color:#040404"/>
						<stop  offset="0.1748" style="stop-color:#464646"/>
						<stop  offset="0.337" style="stop-color:#7E7E7E"/>
						<stop  offset="0.4925" style="stop-color:#ACACAC"/>
						<stop  offset="0.64" style="stop-color:#D0D0D0"/>
						<stop  offset="0.7776" style="stop-color:#EAEAEA"/>
						<stop  offset="0.9016" style="stop-color:#FAFAFA"/>
						<stop  offset="1" style="stop-color:#FFFFFF"/>
					</radialGradient>
					<circle class="st50" cx="134.52" cy="93.4" r="5.58"/>
				</g>
				<radialGradient id="SVGID_48_" cx="140.0275" cy="84.9446" r="12.8012" gradientUnits="userSpaceOnUse">
					<stop  offset="0" style="stop-color:#00FFFF"/>
					<stop  offset="0.4841" style="stop-color:#29ABE2"/>
					<stop  offset="1" style="stop-color:#662D91"/>
				</radialGradient>
				<circle class="st51" cx="137.58" cy="89.65" r="5.42"/>
			</g>
			<g>
				<g class="st23">
					<radialGradient id="SVGID_49_" cx="223.405" cy="198.7138" r="18.2797" gradientUnits="userSpaceOnUse">
						<stop  offset="0" style="stop-color:#000000"/>
						<stop  offset="0.0101" style="stop-color:#040404"/>
						<stop  offset="0.1748" style="stop-color:#464646"/>
						<stop  offset="0.337" style="stop-color:#7E7E7E"/>
						<stop  offset="0.4925" style="stop-color:#ACACAC"/>
						<stop  offset="0.64" style="stop-color:#D0D0D0"/>
						<stop  offset="0.7776" style="stop-color:#EAEAEA"/>
						<stop  offset="0.9016" style="stop-color:#FAFAFA"/>
						<stop  offset="1" style="stop-color:#FFFFFF"/>
					</radialGradient>
					<circle class="st52" cx="223.4" cy="198.71" r="18.28"/>
					<radialGradient id="SVGID_50_" cx="221.8154" cy="201.0981" r="18.2797" gradientUnits="userSpaceOnUse">
						<stop  offset="0" style="stop-color:#000000"/>
						<stop  offset="0.0101" style="stop-color:#040404"/>
						<stop  offset="0.1748" style="stop-color:#464646"/>
						<stop  offset="0.337" style="stop-color:#7E7E7E"/>
						<stop  offset="0.4925" style="stop-color:#ACACAC"/>
						<stop  offset="0.64" style="stop-color:#D0D0D0"/>
						<stop  offset="0.7776" style="stop-color:#EAEAEA"/>
						<stop  offset="0.9016" style="stop-color:#FAFAFA"/>
						<stop  offset="1" style="stop-color:#FFFFFF"/>
					</radialGradient>
					<circle class="st53" cx="221.82" cy="201.1" r="18.28"/>
					<radialGradient id="SVGID_51_" cx="220.2259" cy="203.4824" r="18.2797" gradientUnits="userSpaceOnUse">
						<stop  offset="0" style="stop-color:#000000"/>
						<stop  offset="0.0101" style="stop-color:#040404"/>
						<stop  offset="0.1748" style="stop-color:#464646"/>
						<stop  offset="0.337" style="stop-color:#7E7E7E"/>
						<stop  offset="0.4925" style="stop-color:#ACACAC"/>
						<stop  offset="0.64" style="stop-color:#D0D0D0"/>
						<stop  offset="0.7776" style="stop-color:#EAEAEA"/>
						<stop  offset="0.9016" style="stop-color:#FAFAFA"/>
						<stop  offset="1" style="stop-color:#FFFFFF"/>
					</radialGradient>
					<circle class="st54" cx="220.23" cy="203.48" r="18.28"/>
				</g>
				<radialGradient id="SVGID_52_" cx="238.2593" cy="175.7775" r="41.9492" gradientUnits="userSpaceOnUse">
					<stop  offset="0" style="stop-color:#00FFFF"/>
					<stop  offset="0.4841" style="stop-color:#29ABE2"/>
					<stop  offset="1" style="stop-color:#662D91"/>
				</radialGradient>
				<circle class="st55" cx="230.25" cy="191.2" r="17.75"/>
			</g>
		</g>
		<g id="Dots" class="st1">
			<g>
				<path class="st22" d="M386.14,212.17c0-0.67,0.54-1.21,1.21-1.21s1.21,0.54,1.21,1.21c0,0.67-0.54,1.21-1.21,1.21
					S386.14,212.83,386.14,212.17z"/>
				<path class="st22" d="M370.73,212.17c0-0.67,0.54-1.21,1.21-1.21c0.67,0,1.21,0.54,1.21,1.21c0,0.67-0.54,1.21-1.21,1.21
					C371.27,213.37,370.73,212.83,370.73,212.17z"/>
				<path class="st22" d="M355.32,212.17c0-0.67,0.54-1.21,1.21-1.21c0.67,0,1.21,0.54,1.21,1.21c0,0.67-0.54,1.21-1.21,1.21
					C355.86,213.37,355.32,212.83,355.32,212.17z"/>
				<path class="st22" d="M386.14,190.19c0-0.67,0.54-1.21,1.21-1.21s1.21,0.54,1.21,1.21s-0.54,1.21-1.21,1.21
					S386.14,190.85,386.14,190.19z"/>
				<path class="st22" d="M370.73,190.19c0-0.67,0.54-1.21,1.21-1.21c0.67,0,1.21,0.54,1.21,1.21s-0.54,1.21-1.21,1.21
					C371.27,191.39,370.73,190.85,370.73,190.19z"/>
				<path class="st22" d="M355.32,190.19c0-0.67,0.54-1.21,1.21-1.21c0.67,0,1.21,0.54,1.21,1.21s-0.54,1.21-1.21,1.21
					C355.86,191.39,355.32,190.85,355.32,190.19z"/>
				<path class="st22" d="M386.14,168.2c0-0.67,0.54-1.21,1.21-1.21s1.21,0.54,1.21,1.21c0,0.67-0.54,1.21-1.21,1.21
					S386.14,168.87,386.14,168.2z"/>
				<path class="st22" d="M370.73,168.2c0-0.67,0.54-1.21,1.21-1.21c0.67,0,1.21,0.54,1.21,1.21c0,0.67-0.54,1.21-1.21,1.21
					C371.27,169.41,370.73,168.87,370.73,168.2z"/>
				<path class="st22" d="M355.32,168.2c0-0.67,0.54-1.21,1.21-1.21c0.67,0,1.21,0.54,1.21,1.21c0,0.67-0.54,1.21-1.21,1.21
					C355.86,169.41,355.32,168.87,355.32,168.2z"/>
				<path class="st22" d="M386.14,146.22c0-0.67,0.54-1.21,1.21-1.21s1.21,0.54,1.21,1.21c0,0.67-0.54,1.21-1.21,1.21
					S386.14,146.89,386.14,146.22z"/>
				<path class="st22" d="M370.73,146.22c0-0.67,0.54-1.21,1.21-1.21c0.67,0,1.21,0.54,1.21,1.21c0,0.67-0.54,1.21-1.21,1.21
					C371.27,147.43,370.73,146.89,370.73,146.22z"/>
				<path class="st22" d="M355.32,146.22c0-0.67,0.54-1.21,1.21-1.21c0.67,0,1.21,0.54,1.21,1.21c0,0.67-0.54,1.21-1.21,1.21
					C355.86,147.43,355.32,146.89,355.32,146.22z"/>
				<path class="st22" d="M386.14,124.24c0-0.67,0.54-1.21,1.21-1.21s1.21,0.54,1.21,1.21c0,0.67-0.54,1.21-1.21,1.21
					S386.14,124.91,386.14,124.24z"/>
				<path class="st22" d="M370.73,124.24c0-0.67,0.54-1.21,1.21-1.21c0.67,0,1.21,0.54,1.21,1.21c0,0.67-0.54,1.21-1.21,1.21
					C371.27,125.45,370.73,124.91,370.73,124.24z"/>
				<path class="st22" d="M355.32,124.24c0-0.67,0.54-1.21,1.21-1.21c0.67,0,1.21,0.54,1.21,1.21c0,0.67-0.54,1.21-1.21,1.21
					C355.86,125.45,355.32,124.91,355.32,124.24z"/>
			</g>
			<g>
				<path class="st22" d="M42.27,100.76c0-0.67,0.54-1.21,1.21-1.21c0.67,0,1.21,0.54,1.21,1.21c0,0.67-0.54,1.21-1.21,1.21
					C42.81,101.97,42.27,101.43,42.27,100.76z"/>
				<path class="st22" d="M26.86,100.76c0-0.67,0.54-1.21,1.21-1.21c0.67,0,1.21,0.54,1.21,1.21c0,0.67-0.54,1.21-1.21,1.21
					C27.4,101.97,26.86,101.43,26.86,100.76z"/>
				<path class="st22" d="M11.45,100.76c0-0.67,0.54-1.21,1.21-1.21c0.67,0,1.21,0.54,1.21,1.21c0,0.67-0.54,1.21-1.21,1.21
					C11.99,101.97,11.45,101.43,11.45,100.76z"/>
				<path class="st22" d="M42.27,78.78c0-0.67,0.54-1.21,1.21-1.21c0.67,0,1.21,0.54,1.21,1.21c0,0.67-0.54,1.21-1.21,1.21
					C42.81,79.98,42.27,79.44,42.27,78.78z"/>
				<path class="st22" d="M26.86,78.78c0-0.67,0.54-1.21,1.21-1.21c0.67,0,1.21,0.54,1.21,1.21c0,0.67-0.54,1.21-1.21,1.21
					C27.4,79.98,26.86,79.44,26.86,78.78z"/>
				<path class="st22" d="M11.45,78.78c0-0.67,0.54-1.21,1.21-1.21c0.67,0,1.21,0.54,1.21,1.21c0,0.67-0.54,1.21-1.21,1.21
					C11.99,79.98,11.45,79.44,11.45,78.78z"/>
				<path class="st22" d="M42.27,56.8c0-0.67,0.54-1.21,1.21-1.21c0.67,0,1.21,0.54,1.21,1.21c0,0.67-0.54,1.21-1.21,1.21
					C42.81,58,42.27,57.46,42.27,56.8z"/>
				<path class="st22" d="M26.86,56.8c0-0.67,0.54-1.21,1.21-1.21c0.67,0,1.21,0.54,1.21,1.21c0,0.67-0.54,1.21-1.21,1.21
					C27.4,58,26.86,57.46,26.86,56.8z"/>
				<path class="st22" d="M11.45,56.8c0-0.67,0.54-1.21,1.21-1.21c0.67,0,1.21,0.54,1.21,1.21c0,0.67-0.54,1.21-1.21,1.21
					C11.99,58,11.45,57.46,11.45,56.8z"/>
				<path class="st22" d="M42.27,34.81c0-0.67,0.54-1.21,1.21-1.21c0.67,0,1.21,0.54,1.21,1.21c0,0.67-0.54,1.21-1.21,1.21
					C42.81,36.02,42.27,35.48,42.27,34.81z"/>
				<path class="st22" d="M26.86,34.81c0-0.67,0.54-1.21,1.21-1.21c0.67,0,1.21,0.54,1.21,1.21c0,0.67-0.54,1.21-1.21,1.21
					C27.4,36.02,26.86,35.48,26.86,34.81z"/>
				<path class="st22" d="M11.45,34.81c0-0.67,0.54-1.21,1.21-1.21c0.67,0,1.21,0.54,1.21,1.21c0,0.67-0.54,1.21-1.21,1.21
					C11.99,36.02,11.45,35.48,11.45,34.81z"/>
				<path class="st22" d="M42.27,12.83c0-0.67,0.54-1.21,1.21-1.21c0.67,0,1.21,0.54,1.21,1.21s-0.54,1.21-1.21,1.21
					C42.81,14.04,42.27,13.5,42.27,12.83z"/>
				<path class="st22" d="M26.86,12.83c0-0.67,0.54-1.21,1.21-1.21c0.67,0,1.21,0.54,1.21,1.21s-0.54,1.21-1.21,1.21
					C27.4,14.04,26.86,13.5,26.86,12.83z"/>
				<path class="st22" d="M11.45,12.83c0-0.67,0.54-1.21,1.21-1.21c0.67,0,1.21,0.54,1.21,1.21s-0.54,1.21-1.21,1.21
					C11.99,14.04,11.45,13.5,11.45,12.83z"/>
			</g>
		</g>
	</g>
</g>
</svg>
