<svg xmlns="http://www.w3.org/2000/svg" viewBox="0 0 560.43 469.35"><defs><style>.be8ec079-e684-4602-a2e7-1989f4919659{fill:#e8efef;}.a10b1c34-a781-4446-9b38-248ca615ba06{fill:#daedec;}.f370605b-de65-4ac8-8d4d-94a67d2e6b01{fill:#f9bb41;}.a3c2e4b4-8f8a-42b9-ad77-5f13ed7bee7a{fill:#193249;}.ac2591bb-8766-4792-b054-1fc700987aaa{fill:#168e85;}.b58b2569-1bf8-4d88-9055-13d36c7b567d{fill:#fba319;}.fafdf258-de5f-4846-8be8-8eb3cda90355{fill:#0c6d6a;}.f19c75ee-c50b-4228-b118-42f191ff6368{fill:#ffcf50;}.b9755c68-eef1-4700-8780-903725f2ce70{fill:#137f7f;}.aa9d6aa3-c559-4e04-ba15-adb29bb4821c{fill:#79ccca;}.a58f42ae-e580-40cd-92aa-cebbbf7163c5{fill:#afddda;}.ade263a5-da45-4f80-b424-927ed0adab71{fill:#69bcb8;}.a63c6d64-8f7f-450f-b6c9-c15a07079d91{fill:#cceae7;}.fcbcc16f-4471-4fdc-88dd-b40abcdec9a1{fill:#2a425b;}.bbadbb5c-e18a-4baf-87cd-eedb38ce78c3{fill:#f7bcb7;}.a79e687c-91d4-49d8-bc0f-71b3ef80e08c{fill:#5fb7b3;}.b3dca8d2-7523-423a-b937-c310c379c642{fill:#acefea;}.b839e01f-ab58-4fc6-88ce-fa28a063d5d1{fill:#db9795;}.ade5687e-3252-4b1c-8842-a81de12f7920{fill:#e8baa6;}.b6339915-132d-4213-977e-da96b6415b1a{fill:#0c605e;}</style></defs><g id="f07afbcf-da9b-4d34-8548-1f68385504a4" data-name="Layer 2"><g id="e2404109-de39-40f9-8789-514e30492a1c" data-name="Object"><path class="be8ec079-e684-4602-a2e7-1989f4919659" d="M269.56,414.26S25.67,413.47,61.62,427s-83.5,13.54-58,27.08,494.49,23.09,470.6,6.37,94-27.87,49.37-32.65S269.56,414.26,269.56,414.26Z"/><path class="a10b1c34-a781-4446-9b38-248ca615ba06" d="M312.44,332.23c-83.78,25.59-205.56,79.65-230.53,32.66S209.71,281.43,173.14,224,89.44,189,46.52,116.1,103.13,10.55,149.32,52,305.39-9.92,385,100.65s-.8,107.5,115.46,174.73-13.93,154.7-74.85,87.76S326.82,327.83,312.44,332.23Z"/><path class="a10b1c34-a781-4446-9b38-248ca615ba06" d="M382.44,51.8c1.45,26.73,61.51,59.88,63.75,137.91,1.34,46.82,95.77,72.83,111.62,20.19,18.32-60.8-65.49-45.15-65.49-125.43C492.32-6.31,378.87-14.14,382.44,51.8Z"/><path class="f370605b-de65-4ac8-8d4d-94a67d2e6b01" d="M396.24,289.8l-34.51,16s-8-7.8-.79-15.77S362,274.34,354,275.93s-13.36-16.48-5.13-26.3-14.77-45-5.37-46.89,7.48,33.64,22.14,35,18.59,2,20.48,10.68-9,9-7.17,19.18C380.77,277.32,398.46,270.54,396.24,289.8Z"/><path class="a3c2e4b4-8f8a-42b9-ad77-5f13ed7bee7a" d="M394.78,367.3l0,0a1.18,1.18,0,0,0,.52-1.56c-3.06-6.27-18.21-39.83-1.82-55.54,6-5.77,17.84-12.24,21.39-14.12a1.18,1.18,0,0,0,.49-1.58v0a1.19,1.19,0,0,0-1.6-.51c-3.64,1.93-15.59,8.46-21.92,14.52-8.05,7.72-10.26,20.48-6.38,36.92a105.86,105.86,0,0,0,7.7,21.4A1.17,1.17,0,0,0,394.78,367.3Z"/><path class="a3c2e4b4-8f8a-42b9-ad77-5f13ed7bee7a" d="M425.63,361.82c0-.33,2.29-33.85-28.55-53.65-29.8-19.13-35.44-57.44-35.49-57.82,0,0,3.49,40.12,34.19,59.83,29.66,19,27.49,51.14,27.47,51.45Z"/><path class="a3c2e4b4-8f8a-42b9-ad77-5f13ed7bee7a" d="M416.42,344.64a1.18,1.18,0,0,0,1.46-.81c5.22-17.36,10.65-19.14,32.07-19.65,9.24-.22,18.58-4.81,27-13.29a70,70,0,0,0,9.39-11.75,1.19,1.19,0,0,0-.42-1.65h0a1.17,1.17,0,0,0-1.58.39,68.24,68.24,0,0,1-9.1,11.38c-5.56,5.58-14.48,12.29-25.34,12.54-22.14.53-28.68,2.73-34.3,21.37a1.18,1.18,0,0,0,.81,1.47Z"/><path class="a3c2e4b4-8f8a-42b9-ad77-5f13ed7bee7a" d="M419.76,353.51a1.18,1.18,0,0,0,1.42-.8c3.09-10.53,14.81-26,57.72-20.65,12.31,1.54,26.29-4.85,40.43-18.48a140.53,140.53,0,0,0,17-20.11,1.19,1.19,0,0,0-.33-1.66l0,0a1.18,1.18,0,0,0-1.61.32c-4.3,6.22-29.48,40.82-55.2,37.58-33.58-4.2-54.93,3.73-60.32,22.36a1.17,1.17,0,0,0,.85,1.45Z"/><path class="a3c2e4b4-8f8a-42b9-ad77-5f13ed7bee7a" d="M448.3,353.32c7.73-9.45,27.4-6.24,32.29-5.26a1.18,1.18,0,0,0,1.37-.89v0a1.18,1.18,0,0,0-.91-1.43,70.81,70.81,0,0,0-13.46-1.37c-9.85,0-17.13,2.57-21.14,7.46a1.18,1.18,0,0,0,.24,1.72l0,0A1.17,1.17,0,0,0,448.3,353.32Z"/><path class="a3c2e4b4-8f8a-42b9-ad77-5f13ed7bee7a" d="M383.44,357.5l.05,0a1.18,1.18,0,0,0,.72-1.55c-3.24-8.48-10.09-15.32-19.89-19.85a57,57,0,0,0-13.43-4.27,1.17,1.17,0,0,0-1.37,1v0a1.18,1.18,0,0,0,1,1.31c4.93.91,25,5.62,31.51,22.63A1.17,1.17,0,0,0,383.44,357.5Z"/><path class="ac2591bb-8766-4792-b054-1fc700987aaa" d="M447.33,378.75s15.73-44.69,7.17-45.49-9.36,24-15.53,22.74-5.77-36.87-14.53-37.07-5.18,32.25-11.55,31.45-.39-24.29-9.35-23.29-.94,22.1-5.65,22.49-8.29-59.52-18.64-57.73,6.17,64.7-1,64.7-4.37-23.49-10.94-22.89-4,29.06,3.18,45.09Z"/><path class="b58b2569-1bf8-4d88-9055-13d36c7b567d" d="M413.5,423.62H372.87a4.77,4.77,0,0,1-4.77-4.76v-6.17h50.17v6.17A4.77,4.77,0,0,1,413.5,423.62Z"/><path class="fafdf258-de5f-4846-8be8-8eb3cda90355" d="M361.73,374.47s.3,3.58,1,8.56c1.61,11.27,5.35,29.66,12.53,29.66h35c12.74,0,14.13-38.22,14.13-38.22Z"/><path class="b58b2569-1bf8-4d88-9055-13d36c7b567d" d="M361.73,374.47s.3,3.58,1,8.56H397l4-8.56Z"/><path class="f19c75ee-c50b-4228-b118-42f191ff6368" d="M438.18,423.62H397.56a4.76,4.76,0,0,1-4.77-4.76v-6.17H443v6.17A4.76,4.76,0,0,1,438.18,423.62Z"/><path class="b9755c68-eef1-4700-8780-903725f2ce70" d="M388,374.47s.3,3.58,1,8.56c1.61,11.27,5.34,29.66,12.53,29.66h35c8.84,0,12.22-18.39,13.46-29.66.54-5,.68-8.56.68-8.56Z"/><path class="f19c75ee-c50b-4228-b118-42f191ff6368" d="M388,374.47s.3,3.58,1,8.56h61c.54-5,.68-8.56.68-8.56Z"/><path class="f19c75ee-c50b-4228-b118-42f191ff6368" d="M404.53,300.61s8.41,18.12,30.38,15.13C434.91,315.74,421.51,295.43,404.53,300.61Z"/><path class="f19c75ee-c50b-4228-b118-42f191ff6368" d="M404.53,300.61s-8.56-15.92,1-31.05C405.53,269.56,415.68,284.09,404.53,300.61Z"/><path class="f370605b-de65-4ac8-8d4d-94a67d2e6b01" d="M404.53,300.61s-.79-25.08,9.16-33C413.69,267.57,419.86,293.05,404.53,300.61Z"/><path class="f370605b-de65-4ac8-8d4d-94a67d2e6b01" d="M404.53,300.61s17.92,10.55,39.42,13.54C444,314.15,429.22,288.87,404.53,300.61Z"/><path class="ac2591bb-8766-4792-b054-1fc700987aaa" d="M415.38,294.46s-7.11-18.78,4.34-28.29C419.72,266.17,428.42,283.92,415.38,294.46Z"/><path class="ac2591bb-8766-4792-b054-1fc700987aaa" d="M415.38,294.46s24,18,34.54,11.37C449.92,305.83,443.58,284.51,415.38,294.46Z"/><path class="aa9d6aa3-c559-4e04-ba15-adb29bb4821c" d="M415.38,294.46s31.87-34.8,37.36-26.89C458.68,276.13,420.6,292.88,415.38,294.46Z"/><path class="fafdf258-de5f-4846-8be8-8eb3cda90355" d="M462.06,320.32s24.09,10.15,31.66-9.16,5.37-31.05,14.13-35.23C507.85,275.93,458.28,283.69,462.06,320.32Z"/><path class="ac2591bb-8766-4792-b054-1fc700987aaa" d="M513.72,314.15s-8.13-19,7.53-30.06,30.26-19,30-26.41C551.25,257.68,558,329,513.72,314.15Z"/><circle class="f19c75ee-c50b-4228-b118-42f191ff6368" cx="481.97" cy="347.13" r="10.35"/><circle class="f19c75ee-c50b-4228-b118-42f191ff6368" cx="348.46" cy="332.8" r="8.49" transform="translate(-48.69 59.94) rotate(-9.19)"/><path class="a58f42ae-e580-40cd-92aa-cebbbf7163c5" d="M386.61,85.4V423.82H149.32l.8-274.72H122.25c0-84,6.64-95.36,20.48-96.91a62.58,62.58,0,0,1,6.59-.24H365.91C387.41,52,386.61,85.4,386.61,85.4Z"/><path class="ade263a5-da45-4f80-b424-927ed0adab71" d="M150.12,99.47V149.1H122.25c0-84,6.64-95.36,20.48-96.91C152,55,150.12,82.36,150.12,99.47Z"/><path class="a63c6d64-8f7f-450f-b6c9-c15a07079d91" d="M177.89,167.57h47.7a2.68,2.68,0,0,0,2.8-2.56V118.66a2.69,2.69,0,0,0-2.8-2.56h-47.7a2.69,2.69,0,0,0-2.8,2.56V165A2.68,2.68,0,0,0,177.89,167.57Z"/><rect class="ade263a5-da45-4f80-b424-927ed0adab71" x="190.55" y="134.93" width="22.39" height="25.7" rx="2.12"/><path class="ade263a5-da45-4f80-b424-927ed0adab71" d="M209.7,139.4h-1.49v-4.47c0-2.43-.47-10.37-6.47-10.37-5.84,0-6.47,7.25-6.47,10.37v4.47h-1.49v-4.47c0-7.43,3-11.86,8-11.86,1.87,0,8,.85,8,11.86Z"/><path class="ade263a5-da45-4f80-b424-927ed0adab71" d="M341.49,126.3H252.31a.8.8,0,0,1-.8-.8h0a.8.8,0,0,1,.8-.8h89.18a.79.79,0,0,1,.79.8h0A.79.79,0,0,1,341.49,126.3Z"/><path class="ade263a5-da45-4f80-b424-927ed0adab71" d="M341.49,142.63H252.31a.79.79,0,0,1-.8-.79h0a.8.8,0,0,1,.8-.8h89.18a.79.79,0,0,1,.79.8h0A.79.79,0,0,1,341.49,142.63Z"/><path class="ade263a5-da45-4f80-b424-927ed0adab71" d="M341.49,159H252.31a.8.8,0,0,1-.8-.8h0a.79.79,0,0,1,.8-.79h89.18a.79.79,0,0,1,.79.79h0A.79.79,0,0,1,341.49,159Z"/><path class="a63c6d64-8f7f-450f-b6c9-c15a07079d91" d="M177.89,364.62h47.7a2.69,2.69,0,0,0,2.8-2.56V315.71a2.68,2.68,0,0,0-2.8-2.56h-47.7a2.68,2.68,0,0,0-2.8,2.56v46.35A2.69,2.69,0,0,0,177.89,364.62Z"/><path class="ade263a5-da45-4f80-b424-927ed0adab71" d="M341.49,323.34H252.31a.79.79,0,0,1-.8-.79h0a.8.8,0,0,1,.8-.8h89.18a.79.79,0,0,1,.79.8h0A.79.79,0,0,1,341.49,323.34Z"/><path class="ade263a5-da45-4f80-b424-927ed0adab71" d="M341.49,339.68H252.31a.8.8,0,0,1-.8-.8h0a.79.79,0,0,1,.8-.79h89.18a.79.79,0,0,1,.79.79h0A.79.79,0,0,1,341.49,339.68Z"/><path class="ade263a5-da45-4f80-b424-927ed0adab71" d="M341.49,356H252.31a.79.79,0,0,1-.8-.79h0a.8.8,0,0,1,.8-.8h89.18a.79.79,0,0,1,.79.8h0A.79.79,0,0,1,341.49,356Z"/><rect class="ade263a5-da45-4f80-b424-927ed0adab71" x="251.51" y="223.23" width="90.78" height="1.59" rx="0.78"/><rect class="ade263a5-da45-4f80-b424-927ed0adab71" x="251.51" y="239.56" width="90.78" height="1.59" rx="0.78"/><rect class="ade263a5-da45-4f80-b424-927ed0adab71" x="251.51" y="255.9" width="90.78" height="1.59" rx="0.78"/><rect class="ade263a5-da45-4f80-b424-927ed0adab71" x="190.55" y="331.98" width="22.39" height="25.7" rx="2.12"/><path class="ade263a5-da45-4f80-b424-927ed0adab71" d="M209.7,336.45h-1.49V332c0-2.44-.47-10.37-6.47-10.37-5.84,0-6.47,7.25-6.47,10.37v4.47h-1.49V332c0-7.43,3-11.87,8-11.87,1.87,0,8,.86,8,11.87Z"/><path class="fafdf258-de5f-4846-8be8-8eb3cda90355" d="M141.48,446.69a7.11,7.11,0,0,1-3.39.23,5.72,5.72,0,0,1-1.53-.48,6.46,6.46,0,0,1-2.57-2.12s-7.47-49.59-1.34-52.17,2.23,20,11,19.81,12.58-29.12,20.54-20.84S141.48,446.69,141.48,446.69Z"/><path class="fcbcc16f-4471-4fdc-88dd-b40abcdec9a1" d="M142.53,423.79a5.57,5.57,0,0,1-1.41-.19c-7.37-2-7.79-14.64-7.77-18a.8.8,0,0,1,.83-.78h0a.8.8,0,0,1,.76.79c0,3.11.39,14.81,6.59,16.49,5.64,1.54,12.69-11.06,15.34-16.89a.79.79,0,0,1,1-.39h0a.79.79,0,0,1,.41,1.06,72.48,72.48,0,0,1-5.09,9.2C149.37,420.85,145.78,423.79,142.53,423.79Z"/><path class="fcbcc16f-4471-4fdc-88dd-b40abcdec9a1" d="M142,423.75l-3.89,23.17a5.72,5.72,0,0,1-1.53-.48l3.85-22.95a.81.81,0,0,1,.92-.66h0A.79.79,0,0,1,142,423.75Z"/><path class="ac2591bb-8766-4792-b054-1fc700987aaa" d="M38.78,450.13a5.2,5.2,0,0,1-2.52.17,4.54,4.54,0,0,1-1.13-.35,4.8,4.8,0,0,1-1.91-1.58s-5.55-36.8-1-38.72,1.66,14.83,8.21,14.71,9.34-21.62,15.24-15.48S38.78,450.13,38.78,450.13Z"/><path class="fcbcc16f-4471-4fdc-88dd-b40abcdec9a1" d="M39.55,433.13a4.07,4.07,0,0,1-1-.14c-5.47-1.48-5.78-10.86-5.76-13.38a.58.58,0,0,1,.61-.58h0a.58.58,0,0,1,.56.58c0,2.31.29,11,4.89,12.24,4.19,1.14,9.42-8.21,11.39-12.54A.58.58,0,0,1,51,419h0a.59.59,0,0,1,.3.79,54.66,54.66,0,0,1-3.78,6.83C44.64,431,42,433.13,39.55,433.13Z"/><path class="fcbcc16f-4471-4fdc-88dd-b40abcdec9a1" d="M39.15,433.1l-2.89,17.2a4.54,4.54,0,0,1-1.13-.35l2.86-17a.59.59,0,0,1,.68-.49h0A.59.59,0,0,1,39.15,433.1Z"/><path class="ac2591bb-8766-4792-b054-1fc700987aaa" d="M136.47,446.4a13.2,13.2,0,0,1-5.95,1.48,11.26,11.26,0,0,1-1.68-.12,11.93,11.93,0,0,1-5.63-2.34s-18.2-56.89-11.92-58.29,8.83,36.29,13.67,33.32-1.71-17.24,6.5-14S136.47,446.4,136.47,446.4Z"/><path class="fcbcc16f-4471-4fdc-88dd-b40abcdec9a1" d="M125.41,430.4c-2.76,0-5-2.78-6.75-8.26a50.63,50.63,0,0,1-1.62-7,.8.8,0,0,1,.68-.91h0a.79.79,0,0,1,.88.66,51.21,51.21,0,0,0,1.57,6.82c1.45,4.59,3.31,7.12,5.23,7.12a2.84,2.84,0,0,0,2.09-.91c2.19-2.23,2.53-7.64,2.57-9.64a.8.8,0,0,1,.78-.77h0a.79.79,0,0,1,.81.81c0,2.18-.43,8.06-3,10.71A4.36,4.36,0,0,1,125.41,430.4Z"/><path class="fcbcc16f-4471-4fdc-88dd-b40abcdec9a1" d="M130.52,447.88a11.26,11.26,0,0,1-1.68-.12l-4-17.2a.78.78,0,0,1,.58-1h0a.79.79,0,0,1,1,.59Z"/><path class="fafdf258-de5f-4846-8be8-8eb3cda90355" d="M35.06,449.91a9.79,9.79,0,0,1-4.42,1.1,8.12,8.12,0,0,1-1.24-.09,8.84,8.84,0,0,1-4.18-1.73S11.71,407,16.37,405.92s6.55,26.94,10.15,24.74-1.27-12.81,4.82-10.41S35.06,449.91,35.06,449.91Z"/><path class="fcbcc16f-4471-4fdc-88dd-b40abcdec9a1" d="M26.85,438c-2.05,0-3.73-2.07-5-6.13a36.36,36.36,0,0,1-1.2-5.22.57.57,0,0,1,.5-.67h0a.59.59,0,0,1,.66.49A37,37,0,0,0,23,431.57c1.08,3.41,2.45,5.28,3.88,5.28a2.12,2.12,0,0,0,1.55-.67c1.62-1.66,1.88-5.68,1.91-7.16a.6.6,0,0,1,.58-.57h0a.6.6,0,0,1,.61.6c0,1.62-.32,6-2.26,7.95A3.23,3.23,0,0,1,26.85,438Z"/><path class="fcbcc16f-4471-4fdc-88dd-b40abcdec9a1" d="M30.64,451a8.12,8.12,0,0,1-1.24-.09l-3-12.76a.58.58,0,0,1,.44-.71h0a.59.59,0,0,1,.71.43Z"/><path class="fcbcc16f-4471-4fdc-88dd-b40abcdec9a1" d="M95.5,363.71s-4.29,4.21-4.5,6.62,4.42,15.81,2.64,16.13-17.85-15.13-18.49-19.22c-.09-.61,12.88-9,12.88-9Z"/><path class="fcbcc16f-4471-4fdc-88dd-b40abcdec9a1" d="M86.75,334.29s-5.54,1.08-6.9,2.95S75.57,352.69,74,352s-6.88-22.35-5.37-26.07c.23-.55,14.84-.23,14.84-.23Z"/><path class="bbadbb5c-e18a-4baf-87cd-eedb38ce78c3" d="M89.19,359.23s10.22-24.06,11.56-29.11c1.17-4.44-9.29-11.41-9.29-11.41l20.7-3.45s4,9.42,4.78,13.4-22.83,36.23-22.83,36.23A18.15,18.15,0,0,1,89.19,359.23Z"/><path class="bbadbb5c-e18a-4baf-87cd-eedb38ce78c3" d="M93.84,327.2s28.08-13.8,30.63-18.31,3.08-13.87-5.68-17.15S93.84,327.2,93.84,327.2Z"/><path class="b9755c68-eef1-4700-8780-903725f2ce70" d="M121.51,293.13c-3.2-.09-5.59,2.42-7,5.69-2,4.51-2.11,10.47,0,12.86,3.72,4.11,0,9.43,0,9.43C103.38,316.36,90,338.88,90,338.88a33.37,33.37,0,0,1-19.69-10.46C56.83,314,55,290.47,55,290.47a20.76,20.76,0,0,1,6.13-4.89C74.58,278.33,96,283,99.4,287.69c4,5.48,19.52,2.22,21.27,2.78S121.51,293.13,121.51,293.13Z"/><path class="fafdf258-de5f-4846-8be8-8eb3cda90355" d="M70.35,328.42C56.83,314,55,290.47,55,290.47a20.76,20.76,0,0,1,6.13-4.89l2.23,3s-6,26,5.23,37.3A6.1,6.1,0,0,1,70.35,328.42Z"/><path class="fcbcc16f-4471-4fdc-88dd-b40abcdec9a1" d="M112.66,206s-.58,12.33-9.18,14.57-4,11.83-10.36,14.65-30.8.84-30.8.84S55.26,225.67,59,216.65s11.35-5.24,20.21-18.38,25.38-18.61,32.34-13.14-2.38,13.64-.59,15.13S112.79,204.72,112.66,206Z"/><path class="a79e687c-91d4-49d8-bc0f-71b3ef80e08c" d="M142.73,226.54s5.65,1.85,5.87,7.34c0,0-16.85,19.67-19.22,19.93s-25-4.57-25.78-5.06,2-19.33,2-19.33,18.36,10.43,20.48,10.76S142.73,226.54,142.73,226.54Z"/><path class="b3dca8d2-7523-423a-b937-c310c379c642" d="M102.71,278.58c1.52,4.35-1.42,10-1.42,10a33.72,33.72,0,0,0-11.24-3.41l-.72-.08-.26,0c-10.21-.8-39.22,6.66-39.22,6.66s-3.26-2.12-1.47-6.69-2.44-5.71-1.79-12.56,14-50,23.16-53.83c2.86-1.2,13.45-2.08,16-1.6l.19,0c1.2.32,6.93,3.67,11.91,6.83,3.88,2.46,7.3,4.79,7.75,5.49C108,233.23,101.19,274.23,102.71,278.58Z"/><path class="aa9d6aa3-c559-4e04-ba15-adb29bb4821c" d="M89.91,261.21c0,4.15-.11,8.26-.25,12-.17,4.78-.41,9-.59,11.87-10.21-.8-39.22,6.66-39.22,6.66s-3.26-2.13-1.47-6.69-2.44-5.71-1.79-12.56,14-50,23.16-53.83c2.86-1.2,13.45-2.08,16-1.6l.19,0s-5.38,5.69.61,15.05C89.26,236.46,90,249,89.91,261.21Z"/><path class="aa9d6aa3-c559-4e04-ba15-adb29bb4821c" d="M103,268c-.49,5.33-.72,9.4-.3,10.62,1.53,4.34-1.41,10-1.41,10A33.73,33.73,0,0,0,90,285.18c.15-2.67.39-7.12.72-12.34.24-3.79.53-8,.85-12.19,1-12.23,2.26-24.53,3.75-27.15,3.18-5.54,2.24-9.57,2.24-9.57h.21c3.87,2.46,7.3,4.79,7.75,5.49,1.34,2.06,0,15-1.37,27.16C103.75,260.61,103.33,264.55,103,268Z"/><path class="aa9d6aa3-c559-4e04-ba15-adb29bb4821c" d="M91.61,260.65c-.32,4.21-.61,8.4-.85,12.19l-1.1.37c.14-3.74.24-7.85.25-12Z"/><path class="a79e687c-91d4-49d8-bc0f-71b3ef80e08c" d="M104.19,256.58c-.44,4-.86,8-1.19,11.38a121.35,121.35,0,0,1-12.24,4.88c.24-3.79.53-8,.85-12.19C96.17,259.16,101,257.57,104.19,256.58Z"/><path class="a79e687c-91d4-49d8-bc0f-71b3ef80e08c" d="M89.91,261.21c0,4.15-.11,8.26-.25,12-7.4,2.38-14.91,3.78-19.17,2-10.62-4.51-8.17-39.08-8.17-39.08l17.46,28.46Z"/><path class="bbadbb5c-e18a-4baf-87cd-eedb38ce78c3" d="M107.68,248.43s2-1.23,2-1.76.33-4.44,1.06-4.85,2.77.41,3.1.41,5.71-3.84,6.57-3.35-.45,1.47,0,2,3.14,4.41,3.3,6.16-2.41,4.44-3.63,5.32-8.81,3.2-8.81,3.2S106.82,253.2,107.68,248.43Z"/><path class="aa9d6aa3-c559-4e04-ba15-adb29bb4821c" d="M108.13,246.8a18.72,18.72,0,0,1,5.83,9.46s-25.85,16.72-33,16.8-17.46-22.86-19-32.88,3.2-17.45,4.72-19,5.85-2.83,8,.31,7.26,29.68,10.6,32.82S108.13,246.8,108.13,246.8Z"/><path class="ade263a5-da45-4f80-b424-927ed0adab71" d="M197.26,237.87l-37.19,7.28a3.25,3.25,0,0,1-3.82-2.57l-2.71-13.84-.38-1.93-1.07-5.45-.58-3-2.2-11.21a3.28,3.28,0,0,1,2.58-3.83l37.18-7.28a3.28,3.28,0,0,1,3.83,2.57l6.93,35.4A3.27,3.27,0,0,1,197.26,237.87Z"/><rect class="a63c6d64-8f7f-450f-b6c9-c15a07079d91" x="163.82" y="213.76" width="22.63" height="25.98" rx="2.14" transform="translate(-35.78 32.83) rotate(-9.72)"/><path class="a63c6d64-8f7f-450f-b6c9-c15a07079d91" d="M181.63,217.05l-1.49.25-.76-4.45c-.41-2.43-2.23-10.25-8.21-9.23-5.82,1-5.21,8.33-4.68,11.44l.77,4.45-1.49.26-.76-4.46c-1.27-7.4.94-12.33,5.9-13.18,1.86-.32,8.08-.5,10,10.46Z"/><path class="bbadbb5c-e18a-4baf-87cd-eedb38ce78c3" d="M100.83,217.43l-3.24,6.5s-.24,1.62-3.14,1.68a11.06,11.06,0,0,1-2.26-.21c-4.17-.76-6.29-8.3-6.29-8.3l3.76-7.85,4.68-1.57L98.56,214Z"/><path class="b839e01f-ab58-4fc6-88ce-fa28a063d5d1" d="M100.83,217.43l-3.24,6.5s-.24,1.62-3.14,1.68c.54-2.64.74-5.33-.47-6-2.5-1.45,0-6.66,0-6.66L98.56,214Z"/><path class="bbadbb5c-e18a-4baf-87cd-eedb38ce78c3" d="M109.15,201.28a36.08,36.08,0,0,1-2.2,11.46c-2.08,5.69-6.16,6.09-7.38,5.87-1.84-.32-5.8-1.79-6-9.05l-5.1-.41-3.83-10,11.7-3.34S109.68,196.08,109.15,201.28Z"/><path class="fcbcc16f-4471-4fdc-88dd-b40abcdec9a1" d="M106.11,198.67s-1.64,4.62-13,4.41c-4.62-.09,0,5,0,5s-3.92,8.65-7.41,9c0,0-6.17-16-2.78-19.58s26.23-4.58,26.23-4.58L111,207.24l-2.7.85S104.3,202.65,106.11,198.67Z"/><path class="bbadbb5c-e18a-4baf-87cd-eedb38ce78c3" d="M93.12,203.08a4,4,0,0,0-3.38-1.72c-2.12.21-1.83,6.79,3.38,6.73Z"/><path class="b839e01f-ab58-4fc6-88ce-fa28a063d5d1" d="M90.05,202.45a3.13,3.13,0,0,1,2.07,2.92S90.76,202.78,90.05,202.45Z"/><path class="fafdf258-de5f-4846-8be8-8eb3cda90355" d="M114.5,321.11S86,299.34,85.32,298.8s22.87,10.66,24.65,10.57,2.88-10.27,4.53-10.55c-2,4.51-2.11,10.47,0,12.86C118.26,315.79,114.5,321.11,114.5,321.11Z"/><path class="bbadbb5c-e18a-4baf-87cd-eedb38ce78c3" d="M156.26,227.58c-.3-.53-2-.49-3.1-.77a1.38,1.38,0,0,1-.86-.49c-.54-.87-.49-3.42-.54-4.36a1.09,1.09,0,0,1,.33-.6l-.58-3a20.05,20.05,0,0,0-3.38,2.06c-1.13,1.14-4.56,7.83-4.56,7.83-.47.91,2.91,4.78,2.91,4.78s1.9-1.9,3.15-2.93a14.22,14.22,0,0,1,3.91-1.39C155.11,228.31,156.48,227.93,156.26,227.58Z"/><rect class="ade263a5-da45-4f80-b424-927ed0adab71" x="306.15" width="150" height="103.91" rx="11.67"/><path class="ade263a5-da45-4f80-b424-927ed0adab71" d="M322.06,5.38H440.23A10.66,10.66,0,0,1,451.11,15.8v72a10.66,10.66,0,0,1-10.88,10.43H322.06A10.66,10.66,0,0,1,311.18,87.8v-72A10.66,10.66,0,0,1,322.06,5.38Z"/><circle class="a63c6d64-8f7f-450f-b6c9-c15a07079d91" cx="339.68" cy="19.44" r="6.14"/><path class="a63c6d64-8f7f-450f-b6c9-c15a07079d91" d="M357.94,84.47a6.14,6.14,0,1,1-6.14-6.14A6.14,6.14,0,0,1,357.94,84.47Z"/><circle class="a63c6d64-8f7f-450f-b6c9-c15a07079d91" cx="412.64" cy="84.47" r="6.14"/><path class="a63c6d64-8f7f-450f-b6c9-c15a07079d91" d="M401.5,78.11H361.4a10.76,10.76,0,0,1-10.21-7.72l-11.38-36.5a4.37,4.37,0,0,1,2.49-5.42,3.91,3.91,0,0,1,5,2.69l11.38,36.5a2.81,2.81,0,0,0,2.7,1.9h40.1A2.87,2.87,0,0,0,404,68.21l16.5-27.53a2.32,2.32,0,0,0,.09-2.36A2.78,2.78,0,0,0,418,36.8H356.77a4.29,4.29,0,0,1,0-8.55H418a10.66,10.66,0,0,1,9.51,6,11.45,11.45,0,0,1-.39,11.09L410.61,72.85A10.58,10.58,0,0,1,401.5,78.11Z"/><path class="a3c2e4b4-8f8a-42b9-ad77-5f13ed7bee7a" d="M275.28,238.22s-6.78-3.58-6.72-3.08,5.83,4.63,5.83,4.63Z"/><rect class="b58b2569-1bf8-4d88-9055-13d36c7b567d" x="273.06" y="237.38" width="6.73" height="5.31" transform="translate(-75.73 340.1) rotate(-56.83)"/><rect class="ac2591bb-8766-4792-b054-1fc700987aaa" x="294.65" y="245.96" width="12.21" height="19.94" transform="translate(-78.02 367.67) rotate(-56.83)"/><rect class="f19c75ee-c50b-4228-b118-42f191ff6368" x="356.14" y="223.62" width="16.99" height="148.11" rx="5.07" transform="translate(-84.03 440.05) rotate(-56.83)"/><path class="f19c75ee-c50b-4228-b118-42f191ff6368" d="M299.29,244.83,290,259.05l-11.71-7.65a5.13,5.13,0,0,1-1.49-7.1l3.69-5.64a5.12,5.12,0,0,1,7.09-1.48Z"/><path class="fcbcc16f-4471-4fdc-88dd-b40abcdec9a1" d="M371.73,418.43s-2.24,8.31-5.37,9.6-2.89,3.09-2.89,3.09,14.88,2.69,17.52,2.19,3.68-2.09,3.33-2.74-3.48-13.09-3.48-13.09Z"/><path class="fcbcc16f-4471-4fdc-88dd-b40abcdec9a1" d="M326.76,383.76s-1.53,6.1-5.18,6-7.56-2.13-8.89-.93a4.72,4.72,0,0,0-1.53,2.58s17.92,13.74,18.72,13.54,3.18-18,3.18-18Z"/><path class="a79e687c-91d4-49d8-bc0f-71b3ef80e08c" d="M398.45,275.38s2.1.41,3.89,5.59,6.77,34.34,6.57,36-11.55,17.12-11.55,17.12Z"/><path class="bbadbb5c-e18a-4baf-87cd-eedb38ce78c3" d="M369.88,273.49c1.35-.43,2.54,1.6,3.2,3,.33.75.53,1.33.53,1.33l8.29-4.11-1.2-4.12-1.52-3.12-4.93-1.13-2.57,2.51c-.93.91-1.77,1.72-1.8,1.74S369.88,273.49,369.88,273.49Z"/><path class="b839e01f-ab58-4fc6-88ce-fa28a063d5d1" d="M369.88,273.49c1.35-.43,2.54,1.6,3.2,3a7,7,0,0,0,1.68-.48,2.11,2.11,0,0,0-.69-2.83c-1.3-.75-.8-5-.8-5l-1.59-.35c-.93.91-1.77,1.72-1.8,1.74S369.88,273.49,369.88,273.49Z"/><path class="fafdf258-de5f-4846-8be8-8eb3cda90355" d="M361.85,263.61a6.47,6.47,0,0,1,0-1.66c.11-.59.33-.9.65-.94.69,0,1.09,1.24,1.21,2.39a6.05,6.05,0,0,1,0,1.66c-.1.58-.32.9-.64.93H363C362.35,266,362,264.72,361.85,263.61Zm.6-.07a3.71,3.71,0,0,0,.55,1.83,3.75,3.75,0,0,0,.14-1.9,3.82,3.82,0,0,0-.55-1.83A3.73,3.73,0,0,0,362.45,263.54Z"/><path class="bbadbb5c-e18a-4baf-87cd-eedb38ce78c3" d="M364,262.93c0,.2,0,.4.05.61a17.29,17.29,0,0,0,1.63,6.55c2.13,3.71,3.32,4.45,3.32,4.45s4.44-5.32,4.24-6.31,2.59-6,2.59-6l-3.84-8s-7.84,1.26-8.1,4.12A40.56,40.56,0,0,0,364,262.93Z"/><path class="ade5687e-3252-4b1c-8842-a81de12f7920" d="M364,262.93c0,.2,0,.4.05.61l5.22-1.5.2-.05a1.56,1.56,0,0,0-.2-.16,2.22,2.22,0,0,0-.48-.27l-.33.09Z"/><path class="b839e01f-ab58-4fc6-88ce-fa28a063d5d1" d="M367.26,261.26s-2.12.17-2.92-.44a1.78,1.78,0,0,1-.56-1.7c0-.12.81-1,1-.92s2,1,2.07,1.07S367.26,261.26,367.26,261.26Z"/><path class="fcbcc16f-4471-4fdc-88dd-b40abcdec9a1" d="M361.39,255.75l2.57,6.12.21-2.1a4.38,4.38,0,0,0,3.09,1.49,4,4,0,0,1,1.23.18,2.53,2.53,0,0,1,.33.12,2.22,2.22,0,0,1,.48.27,1.56,1.56,0,0,1,.2.16,2.73,2.73,0,0,1,.92,1.58,7.6,7.6,0,0,1,.2-1.91,2,2,0,0,1,.07-.23,2.18,2.18,0,0,1,.16-.45,1.15,1.15,0,0,1,.12-.25,1.8,1.8,0,0,1,1.41-1.06c2.11-.25,1.16,5.18,0,5.44,0,0,2.75,3.65,3.75,3.92s5.51.59,5.51.59,1-8.22,1.59-9,1.79-.83,1.79-1.56-1.33-5.51-2.85-6c0,0-1.86-6-2.19-6.25s-.6,2.39-.6,2.39-5.44-3.18-10.88-.32S361.39,255.75,361.39,255.75Z"/><path class="fafdf258-de5f-4846-8be8-8eb3cda90355" d="M369.84,418.76h0c.09,1.09.15,1.7.15,1.7,4.93,3.19,13.79-.4,13.79-.4s-3.94-41.82-2.34-45.27,11.68-28.53,11.68-28.53c5.17-3,5.33-14.11,5.33-14.11l-.69-5L395,316.4l-8.22,11.69L378.37,339l-.52.67s-11.28,32.25-11.41,35.17C366.32,377.37,369.16,410.76,369.84,418.76Z"/><path class="b6339915-132d-4213-977e-da96b6415b1a" d="M368.82,375.59c-.54-2.25,5.19-18,6.49-21.23s4.93-6.24,10-6.9,6-6.54,6-6.54-7.35-2.62-7.88-2.62c-.21,0-2.42.3-5.06.66l-.52.67s-11.28,32.25-11.41,35.17c-.12,2.57,2.72,36,3.4,44C369.83,418.07,369.35,377.84,368.82,375.59Z"/><path class="b9755c68-eef1-4700-8780-903725f2ce70" d="M323.91,386.22a22.65,22.65,0,0,0,10.88,6.89s10-30.52,11.61-33.17,28.67-14.73,28.67-14.73,10.88,1.85,14.86-2.13S392.58,326,392.58,326l-14-1.78-11.05-1.4-1.07,7-3.72,2.42c-7.4,4.81-23.38,15.24-24.81,16.56C336.05,350.51,323.91,386.22,323.91,386.22Z"/><path class="fafdf258-de5f-4846-8be8-8eb3cda90355" d="M362.71,332.23s5.59-1.63,7.84-1.36,13.2,1.11,13.2,1.11l-1.31-6-3.89-1.8-11.05-1.4-1.07,7Z"/><path class="bbadbb5c-e18a-4baf-87cd-eedb38ce78c3" d="M325.46,282.66s-2.85-4.16-3.25-4.58a4.77,4.77,0,0,0-2.88-.59c-.47.21-7.79-4.77-8.19-4.74s.6,3.94,1,4.95,2.08,3.07,2.39,3.72,5.42,6.73,5.42,6.73l5.41,2.89Z"/><path class="aa9d6aa3-c559-4e04-ba15-adb29bb4821c" d="M362.33,324.67a100,100,0,0,0,13,5.12c5.4,1.72,11.72,3.18,17.42,3.09a113,113,0,0,0,1.65-13.69c.67,3.19.43,9.73.2,13.59a20.76,20.76,0,0,0,5-1s4.1-38,.93-52.16c-.93-4.15-2.39-4.67-4-5.1s-27.05-3.63-29.31-2.93c-.95.3-2,2.77-2.74,6.37a45.74,45.74,0,0,0,.19,18.22C367.3,307.45,362.33,324.67,362.33,324.67Z"/><path class="a79e687c-91d4-49d8-bc0f-71b3ef80e08c" d="M375.31,329.79s-5-5.62-4.5-8.48,1-9.68-1.41-12.07-.4-12.94,2-20.51-.78-12.21-.78-12.21L364.52,278a45.74,45.74,0,0,0,.19,18.22c2.59,11.25-2.38,28.47-2.38,28.47A100,100,0,0,0,375.31,329.79Z"/><path class="aa9d6aa3-c559-4e04-ba15-adb29bb4821c" d="M325.17,280.22s-4.7,6.67-2.26,10.82c0,0,24.87,8.19,27,8.74s22.64-12.86,22.64-12.86,1.54-13.91-5.46-15.31c0,0-18.48,14-19.29,14.46S325.17,280.22,325.17,280.22Z"/><path class="fafdf258-de5f-4846-8be8-8eb3cda90355" d="M368.49,261.44l2.48-.71a3.1,3.1,0,0,0-.28.7l-1.39.4-7.07,2-.16-.58Z"/><path class="b839e01f-ab58-4fc6-88ce-fa28a063d5d1" d="M372.9,260.89s-1.29-.39-1.42.75a1.59,1.59,0,0,0,.48,1.54A1.35,1.35,0,0,1,372.9,260.89Z"/></g></g></svg>