<svg xmlns="http://www.w3.org/2000/svg" viewBox="0 0 4680 3120"><defs><style>.cls-1{fill:transparent;}.cls-2{fill:#ffede0;}.cls-3{fill:#ffded1;}.cls-4{fill:#c25939;}.cls-5{fill:#4a2c4f;}.cls-6{fill:#b3d1ff;}.cls-7{fill:#f2efff;}.cls-8{fill:#8a2914;}.cls-9{fill:#ff5e60;}.cls-10{fill:#d40000;}.cls-11{fill:#241834;}.cls-12{fill:#ff9b81;}.cls-13{fill:#ff6d5b;}.cls-14{fill:#ffba6a;}.cls-15{fill:#ff9700;}.cls-16{fill:#661d09;}.cls-17{fill:#ffc8ab;}.cls-18{fill:#ff842f;}.cls-19{fill:#e33d42;}.cls-20{fill:#baba00;}.cls-21{fill:#ae0000;}.cls-22{fill:#ff8b4a;}.cls-23{fill:#7a7c00;}.cls-24{fill:none;stroke:#7a7c00;stroke-miterlimit:10;stroke-width:10.92px;}</style></defs><title>10</title><g id="_10" data-name="10"><rect class="cls-1" width="4680" height="3120"/><path class="cls-2" d="M777.86,2444.71,426.18,2629.08c-32.1,16.83-13.53,50.16,27.95,50.16H4225.87c39.82,0,59.28-31.13,30.47-48.74L3948.1,2442.08c-19.35-11.83-45.1-18.4-71.84-18.33l-3033.24,6C819.26,2429.78,796.25,2435.07,777.86,2444.71Z"/><ellipse class="cls-3" cx="1367.61" cy="2515.15" rx="591.8" ry="37.24"/><ellipse class="cls-3" cx="2758.37" cy="2538.5" rx="1156.94" ry="76.15"/><rect class="cls-4" x="3068.73" y="663.3" width="1098.67" height="36.57" rx="18.28"/><rect class="cls-4" x="3132.33" y="685.56" width="950.8" height="775.9"/><rect class="cls-5" x="3184.8" y="728.38" width="845.86" height="690.27"/><rect class="cls-6" x="3633.17" y="660.12" width="469.04" height="852.22" rx="30.21"/><rect class="cls-7" x="4002.04" y="661.71" width="41.34" height="849.04"/><rect class="cls-7" x="3781.03" y="661.71" width="168.54" height="849.04"/><rect class="cls-6" x="3118.02" y="660.12" width="469.04" height="852.22" rx="30.21"/><rect class="cls-7" x="3315.17" y="661.71" width="160.59" height="849.04"/><path class="cls-5" d="M3709.48,661.71l.36,15.6.27,15.61.54,31.2q.42,31.2.69,62.41c.22,20.8.27,41.6.4,62.4l.13,62.41-.13,62.4c-.13,20.81-.17,41.61-.39,62.41s-.42,41.6-.7,62.41l-.53,31.2-.28,15.6-.36,15.6-.36-15.6-.27-15.6-.53-31.2q-.42-31.21-.7-62.41c-.22-20.8-.26-41.6-.39-62.41l-.13-62.4.13-62.41c.13-20.8.18-41.6.4-62.4s.41-41.61.69-62.41l.54-31.2.27-15.61Z"/><path class="cls-5" d="M3707.89,1216.61c1,24.64,1.51,49.29,1.86,73.93.22,12.33.27,24.65.4,37l.13,37-.13,37c-.13,12.33-.17,24.65-.39,37-.35,24.64-.87,49.29-1.87,73.93-1-24.64-1.51-49.29-1.86-73.93-.22-12.32-.26-24.64-.39-37l-.13-37,.13-37c.13-12.32.18-24.64.4-37C3706.39,1265.9,3706.91,1241.25,3707.89,1216.61Z"/><path class="cls-5" d="M3184.8,661.71a170.11,170.11,0,0,1,1.86,17.49q.53,8.74.52,17.49t-.51,17.49a167.4,167.4,0,0,1-1.87,17.49,167.44,167.44,0,0,1-1.88-17.49q-.52-8.74-.51-17.49t.52-17.49A167.4,167.4,0,0,1,3184.8,661.71Z"/><path class="cls-5" d="M3184.8,769.83l.35,23.25.27,23.26.54,46.5.66,93c.27,31,.29,62,.43,93l.13,93-.13,93c-.14,31-.15,62-.42,93l-.66,93-.54,46.51-.27,23.25-.36,23.25-.36-23.25-.28-23.25-.53-46.51-.67-93c-.27-31-.28-62-.42-93l-.13-93,.13-93c.14-31,.16-62,.43-93l.66-93,.54-46.5.27-23.26Z"/><path class="cls-5" d="M3242,1507.57c-1-7-1.48-14-1.86-21.06s-.52-14-.52-21.07.16-14,.51-21.07.88-14,1.87-21.06c1,7,1.5,14,1.88,21.06s.51,14.05.51,21.07-.17,14-.52,21.07S3243,1500.55,3242,1507.57Z"/><rect class="cls-4" x="1463.72" y="1712.98" width="1511.71" height="83.45"/><rect class="cls-8" x="1598.52" y="1796.43" width="1376.91" height="125.17"/><rect class="cls-4" x="1508.65" y="1712.98" width="89.87" height="744.62"/><rect class="cls-8" x="3671.9" y="2419.09" width="144.43" height="112.33" rx="56.17"/><rect class="cls-8" x="1710.85" y="2419.09" width="144.43" height="112.33" rx="56.17"/><path class="cls-9" d="M1752.18,2147.08H3539.51a0,0,0,0,1,0,0v228.68a0,0,0,0,1,0,0H1664.32a0,0,0,0,1,0,0V2234.94A87.86,87.86,0,0,1,1752.18,2147.08Z"/><path class="cls-9" d="M1896.61,1896.73h1484a0,0,0,0,1,0,0v252.75a0,0,0,0,1,0,0h-1596a0,0,0,0,1,0,0V2008.66A111.93,111.93,0,0,1,1896.61,1896.73Z"/><path class="cls-10" d="M2632.17,2036.12s-883.91,29.75-794.66,102c65.84,53.28,197.53,37.64,275.78,39.45,138.1,3.21,277.85,44.36,414,77.16,144,34.71,282.12,45.17,430.12,36.33,101.5-6,317.4-8.73,376-114.7C3422.59,2014.88,2632.17,2036.12,2632.17,2036.12Z"/><rect class="cls-8" x="1560" y="2364.52" width="2375.08" height="80.24" rx="40.12"/><rect class="cls-5" x="1629.01" y="917.01" width="1258.15" height="702.9" rx="68.74"/><rect class="cls-11" x="1703.11" y="960.84" width="1143.95" height="611.45" rx="72.57"/><path class="cls-12" d="M2510,1854.2s-122,1.61-171.71,32.1-378.73,329-459,349.84c-73.82,22.47,11.23,91.47,49.74,73.82s168.51-69,243.93-80.24,224.67-72.21,282.44-194.18c75.43,24.08,195.79,67.4,195.79,67.4S2590.28,1857.41,2510,1854.2Z"/><path class="cls-13" d="M2490.05,2046.85c46.67,15.56,129.64,46.24,161.74,57.64-27-78.33-94.54-193.88-111-239l-1.7.54C2550.86,1909.59,2567.43,2000.76,2490.05,2046.85Z"/><path class="cls-11" d="M3091,2151.09c-4.82,1.6-272.81,75.42-487.86-36.91,9.63-20.86-22.46-231.09-99.49-260,54.56-27.28,409.22-33.7,409.22-33.7Z"/><path class="cls-9" d="M3864.48,1307s-197.39-93.88-406.82-79.44-421.25-79.43-399.59,154.06c16.85,228.69,9.63,510.33-175.72,515.14s507.91,332.19,507.91,332.19Z"/><path class="cls-12" d="M2854.66,1546.49s73.42,54.16,99.9,67.4,81.85,77,131.19-18.06,107.93-182.94,135.21-182.94,42.92,170.91,42.92,170.91L3126.68,1774s-179.34,26.48-288.87-186.55C2821,1530.84,2854.66,1546.49,2854.66,1546.49Z"/><path class="cls-14" d="M3306,1395.23,3221,1412.89s-64.19,319.35-191,367.49c48.14,27.28,128.38,89.87,122,219.86s6.42,200.6,41.73,202.2c35.3-4.81,96.28-165.29,163.68-247.14s205-452.14,205-452.14l-140.81-106.32Z"/><path class="cls-15" d="M3357.36,1955.3c40.5-49.17,106.32-202.44,152.44-317-.17-.41-.33-.83-.49-1.24-18-45.44-73.89-61.21-114.06-33.34-28.22,19.58-78.6,44.31-159.48,52.26-45.62,4.49-82.45,15.78-111.71,29.13-26.12,44.88-57.48,81.38-94.07,95.27,48.14,27.28,128.38,89.87,122,219.86q-2.6,52.71-.91,92.18c27.85,26.26,55.68,52.34,78.5,73.6C3264.15,2112.79,3309.11,2013.9,3357.36,1955.3Z"/><path class="cls-12" d="M3294.44,1377.82l.2,39.67s60.87,64.75,141.53-7.55l3.73-83.29S3312.4,1323.42,3294.44,1377.82Z"/><rect class="cls-5" x="2112.05" y="1618.3" width="292.07" height="93.08"/><path class="cls-5" d="M2098,1673.47h320.16a40.74,40.74,0,0,1,40.74,40.74v0a0,0,0,0,1,0,0H2057.26a0,0,0,0,1,0,0v0A40.74,40.74,0,0,1,2098,1673.47Z"/><path class="cls-5" d="M2115.27,1516.4H2400.9a60.19,60.19,0,0,1,60.19,60.19v0a0,0,0,0,1,0,0h-406a0,0,0,0,1,0,0v0A60.19,60.19,0,0,1,2115.27,1516.4Z"/><path class="cls-16" d="M3281.68,1166.24s-29.53-63.34,25.34-48.93c52.88-4.77,130.92,25.29,152.21,75.84,35.66,2.88,30.1,58.9,9.21,87.69-21.9,29.56-30.33,66.29-30.33,66.29s-12.87-32.32-38.37-30.26S3281.68,1166.24,3281.68,1166.24Z"/><path class="cls-17" d="M3281.37,1161.69a501.94,501.94,0,0,1-12.26,66c-18.16,69.69-34.92,128.75,4.19,146.5,42.66,18.21,99.81,22.11,119.3-30.29,16.08,14.73,51.51-24.64,43.78-48.18-10.19-18.45-28.24,1.73-28.24,1.73s23.54-38.51,13.36-77.68c-18.41,3-72.73-8.65-30.67-20.25C3355.47,1201.15,3292.83,1191.12,3281.37,1161.69Z"/><path class="cls-13" d="M3294.41,1383.22s-3.62,48.18,48.53,26.65c52.06-20.87,51.93-66.16,51.93-66.16S3376,1400,3294.41,1383.22Z"/><path class="cls-17" d="M3044.43,1780.38s-341.82-239.11-439.71-155.66c-32.1,28.88-102.71,101.1-11.23,298.49,91.47,203.81,182.94,491.06,182.94,491.06s62.59,32.1,101.1-19.25c-19.25-33.71-25.67-102.71-22.46-168.51s-22.47-250.34-40.12-284c57.77,91.47,226.27,330.58,364.28,218.25S3103.81,1777.17,3044.43,1780.38Z"/><path class="cls-12" d="M2818.16,1948.88q-12.78-30.53-27.33-60.13c-4.91-9.83-9.86-19.64-15.17-29.24s-10.71-19.15-16.56-28.41-11.87-18.41-18.42-27.15a250.5,250.5,0,0,0-21.07-25c-3.8-3.9-7.8-7.6-12-11.11a115.91,115.91,0,0,0-13.13-9.64,75.54,75.54,0,0,0-30.42-11.52c11.08.18,22,3.81,31.82,9.12a130.35,130.35,0,0,1,26.79,20,222.54,222.54,0,0,1,22.25,24.91c3.42,4.38,6.65,8.91,9.8,13.48s6.21,9.21,9.15,13.91q8.74,14.16,16.46,28.89c5.09,9.83,10,19.77,14.45,29.88s8.72,20.33,12.67,30.65S2815.07,1938.28,2818.16,1948.88Z"/><path class="cls-5" d="M2745.94,1603.86s149.25,219.85,139.62,454.15c41.72,75.43,202.2,194.18,316.14,113.94,83.45-86.66,14.44-332.19-157.27-409.22C2892,1666.44,2745.94,1603.86,2745.94,1603.86Z"/><path class="cls-11" d="M3045.22,1763.1c66.74,99.82,190.67,323.9,12.31,426.47,48.62,14.68,99.91,13.55,144.17-17.62C3285,2085.43,3216.35,1840.53,3045.22,1763.1Z"/><path class="cls-4" d="M2455.47,2035.54c2.86-3.6,6-7,9.11-10.22s6.43-6.44,9.77-9.52,6.76-6.07,10.29-8.94a134.29,134.29,0,0,1,11-8.23,132.56,132.56,0,0,1-9.1,10.23c-3.16,3.28-6.43,6.44-9.77,9.51s-6.76,6.07-10.3,9A133,133,0,0,1,2455.47,2035.54Z"/><path class="cls-12" d="M1879.36,2236.14s-44.94,24.07-126.78,11.23-186.16-88.26-178.13-36.91,38.51,104.32,134.8,122c32.1,9.63,97.89,77,138,43.33s91.47-81.85,91.47-81.85Z"/><path class="cls-17" d="M2766.51,2374.28s26,80.11-33.41,107.39-218.25,14.45-182.94,73.82c24.07,12.84,113.94,11.24,186.15,1.61s170.11,33.7,178.13-40.12c-4.81-75.43-44.93-150.85-59.37-158.87S2766.51,2374.28,2766.51,2374.28Z"/><path class="cls-17" d="M3065.29,1554.91s55.37,73.42,142,109.53c38.51,16.85,164.89,119.15,102.3,169.7s-172.11-34.9-294.88-254C3020.76,1553.71,3065.29,1554.91,3065.29,1554.91Z"/><path class="cls-17" d="M3550.34,1498.34S3478.12,1514,3430,1610.28s-152.86,151.65-186.56,155.26-57.77,69.81,21.67,83,184.15-15.65,254-111.94S3640.61,1533.25,3550.34,1498.34Z"/><path class="cls-12" d="M2694.93,1465s-5.16,93.55,75.48,99.57l67.4,22.87,16.85-40.92s-132.39-93.88-158.87-85.46"/><path class="cls-6" d="M2703.31,1428.62c11.06,29.46,25.75,69,34.79,93.28a31.21,31.21,0,0,0,31.85,20.21l209.68-17.47a31.23,31.23,0,0,0,26.64-42.08l-35-93.3a31.22,31.22,0,0,0-31.83-20.15L2730,1386.57A31.2,31.2,0,0,0,2703.31,1428.62Z"/><path class="cls-9" d="M2900.8,1373.57c.8,2.41,44.13,154.06,44.13,154.06l-142.82,12.84L2750,1384Z"/><path class="cls-14" d="M3546.73,1489.92s-73.45-28.79-126.38,125.17c-58.91,74.33-70.44,90.47-70.44,90.47s80.07,69.61,95.72,128.58C3481.73,1813.68,3696,1563.34,3546.73,1489.92Z"/><path class="cls-14" d="M3221,1412.89s-69,7.22-118.36,125.17L3087,1567l66.19,73.42S3250.24,1489.92,3221,1412.89Z"/><path class="cls-18" d="M3455.26,1511.58c-4.47,16.08-9.34,32-14.36,47.91-1.24,4-2.49,8-3.79,11.91s-2.61,8-4,11.9a248.59,248.59,0,0,1-9.91,23.15q-5.61,11.29-12.26,22a245.59,245.59,0,0,1-14.5,20.57c-10.39,13.06-20.94,25.94-31.81,38.61,9.41-13.77,19.23-27.27,29.07-40.68a287.52,287.52,0,0,0,25.55-42.44q5.53-11.1,10-22.69c3-7.67,5.6-15.61,8.48-23.43C3443.29,1542.71,3449.07,1527.08,3455.26,1511.58Z"/><path class="cls-18" d="M3180.68,1482.85c.33,12.93.23,25.84,0,38.75-.08,6.45-.33,12.9-.5,19.35-.09,3.23-.24,6.45-.36,9.67s-.36,6.58-.79,9.84a94.74,94.74,0,0,1-1.89,9.72q-.6,2.4-1.32,4.76c-.48,1.57-.95,3.09-1.45,4.63-2,6.14-3.92,12.3-6,18.41-4.07,12.25-8.3,24.45-12.94,36.52,2.89-12.61,6.2-25.09,9.66-37.52,1.68-6.23,3.53-12.41,5.29-18.62l1.37-4.63c.45-1.51.85-3,1.21-4.57a92,92,0,0,0,1.72-9.29c.44-3.13.71-6.24.85-9.44s.31-6.44.51-9.67c.4-6.44.74-12.88,1.23-19.31C3178.14,1508.57,3179.19,1495.7,3180.68,1482.85Z"/><path class="cls-19" d="M3118.25,2373.35s-67.4-247.94,204.61-303.3c154.06-38.52,185.35-137.21,202.2-238.31S3696,1215.5,3888.55,1316.6c185.35,134.8-74.63,361.08-33.7,500.69s151.65,515.14-38.52,551.25C3137.51,2368.54,3118.25,2373.35,3118.25,2373.35Z"/><rect class="cls-10" x="2233.11" y="538.46" width="218.67" height="264.29" rx="36.22"/><rect class="cls-14" x="2249.21" y="557.91" width="186.48" height="225.37" rx="30.89"/><path class="cls-1" d="M2404.8,557.91h-13.38C2357.75,594,2277.65,668.6,2249.21,698.26V752.4a30.89,30.89,0,0,0,30.89,30.89h28l127.58-129.78V588.8A30.89,30.89,0,0,0,2404.8,557.91Z"/><rect class="cls-10" x="2523.66" y="538.46" width="218.67" height="264.29" rx="36.22"/><rect class="cls-14" x="2539.76" y="557.91" width="186.48" height="225.37" rx="30.89"/><path class="cls-1" d="M2695.34,557.91H2682C2648.3,594,2568.2,668.6,2539.76,698.26V752.4a30.89,30.89,0,0,0,30.89,30.89h28l127.58-129.78V588.8A30.89,30.89,0,0,0,2695.34,557.91Z"/><ellipse class="cls-12" cx="2744.95" cy="1456.59" rx="49.39" ry="8.84" transform="translate(-147.91 321.79) rotate(-6.53)"/><ellipse class="cls-12" cx="2747.45" cy="1472.22" rx="50.3" ry="10.7" transform="translate(-200.76 460.32) rotate(-9.24)"/><ellipse class="cls-12" cx="2750.44" cy="1491.59" rx="50.39" ry="13.02" transform="translate(-169.63 367.78) rotate(-7.42)"/><ellipse class="cls-12" cx="2756.98" cy="1509.51" rx="50.39" ry="12.91" transform="translate(-160.69 340.43) rotate(-6.87)"/><polygon class="cls-17" points="2924.47 1461.03 2984.65 1462.23 2989.47 1445.38 2979.84 1417.7 3021.96 1434.55 3068.9 1560.93 3014.74 1580.19 2978.63 1535.65 2919.66 1530.84 2924.47 1461.03"/><ellipse class="cls-17" cx="2907.42" cy="1467.12" rx="12.19" ry="59.54" transform="translate(878.17 4014.21) rotate(-78.23)"/><ellipse class="cls-17" cx="2904.32" cy="1488.44" rx="11.77" ry="59.41" transform="translate(1302.72 4331.92) rotate(-87.74)"/><ellipse class="cls-17" cx="2897.39" cy="1504.36" rx="8.43" ry="59.58" transform="translate(1280.16 4340.29) rotate(-87.74)"/><ellipse class="cls-17" cx="2909.43" cy="1521.21" rx="8.43" ry="59.58" transform="translate(1274.88 4368.51) rotate(-87.74)"/><path class="cls-5" d="M2774.49,960.84H2552c-121,66.51-683.31,376-848.9,473.54v65.34a72.57,72.57,0,0,0,72.57,72.57h82.6l986-541.95,2.83,3.07A72.57,72.57,0,0,0,2774.49,960.84Z"/><circle class="cls-14" cx="2314.42" cy="1572.42" r="17"/><circle class="cls-10" cx="2261.53" cy="1572.42" r="17"/><circle class="cls-20" cx="2369.19" cy="1572.42" r="17"/><path class="cls-4" d="M3312.82,1237.59a204.82,204.82,0,0,1-5.92,19.87c-1.13,3.25-2.32,6.48-3.54,9.69l-1.88,4.8-1,2.39c-.35.85-.77,1.75-1.21,2.6a25.35,25.35,0,0,1-7.62,8.45,27,27,0,0,1-4.92,2.74l-1.28.51-1,.43a10,10,0,0,0-1.79,1,3.06,3.06,0,0,0-.91,1,1.3,1.3,0,0,0,.06,1.12,10.47,10.47,0,0,0,2.86,3.33,79.73,79.73,0,0,0,8.39,5.83,40,40,0,0,1-9.91-3.62,12.23,12.23,0,0,1-4.48-3.8,5.14,5.14,0,0,1-.77-3.83,6.36,6.36,0,0,1,1.93-3.23,12.91,12.91,0,0,1,2.51-1.83c.43-.25.86-.47,1.29-.68l1.07-.54a25.71,25.71,0,0,0,3.9-2.56,22.66,22.66,0,0,0,5.91-6.9c.36-.68.68-1.32,1-2.06l1-2.37,2.08-4.72c1.41-3.14,2.85-6.26,4.36-9.36A206.06,206.06,0,0,1,3312.82,1237.59Z"/><path class="cls-4" d="M3280.33,1331.58c5.07,1.16,10,2.18,14.92,3a108.18,108.18,0,0,0,14.68,1.48,68.12,68.12,0,0,0,7.29-.12,61.23,61.23,0,0,0,7.25-.85,72.87,72.87,0,0,0,14.42-4.17,33.07,33.07,0,0,1-13.34,8.33,40,40,0,0,1-7.79,1.85,47.46,47.46,0,0,1-8,.43,54.79,54.79,0,0,1-15.56-2.79A46.81,46.81,0,0,1,3280.33,1331.58Z"/><path class="cls-4" d="M3348.69,1231.9a17.87,17.87,0,0,1,5.67-3.38,22,22,0,0,1,6.6-1.41,19.92,19.92,0,0,1,7.08.88,18.4,18.4,0,0,1,6.54,3.68,19.55,19.55,0,0,1,4.51,5.9,21.52,21.52,0,0,1,1.28,3.33c.15.56.35,1.11.45,1.68l.28,1.69a10.61,10.61,0,0,1,.16,1.68c0,.56.07,1.11.08,1.67,0,1.11-.1,2.21-.23,3.29s-.36,2.15-.65,3.2a24.9,24.9,0,0,1-1.11,3.1c-1.83-4-3.09-7.8-4.75-11.08a37,37,0,0,0-2.59-4.51,20.91,20.91,0,0,0-3.1-3.48,20.35,20.35,0,0,0-8.53-4.31A77.84,77.84,0,0,0,3348.69,1231.9Z"/><path class="cls-4" d="M3281.55,1214.87a13.3,13.3,0,0,1,2.62-4.46,17,17,0,0,1,4-3.36,16.24,16.24,0,0,1,5.09-2,15,15,0,0,1,5.9-.08,14.41,14.41,0,0,1,9.4,6.5,15.1,15.1,0,0,1,2.32,10c-2.86-2.07-5.1-4-7.3-5.43-.52-.39-1.08-.65-1.58-1s-1-.54-1.53-.72a14,14,0,0,0-3-.93,21.85,21.85,0,0,0-6.93,0C3287.88,1213.66,3285,1214.3,3281.55,1214.87Z"/><path class="cls-16" d="M3295.12,1242.92c-.82,4.26-4.18,7.2-7.52,6.57s-5.38-4.61-4.57-8.87,4.18-7.21,7.51-6.57S3295.93,1238.65,3295.12,1242.92Z"/><path class="cls-16" d="M3353.94,1262.81c-.81,4.26-4.18,7.2-7.51,6.57s-5.39-4.61-4.58-8.87,4.18-7.21,7.52-6.57S3354.75,1258.54,3353.94,1262.81Z"/><path class="cls-16" d="M3340.13,1251.6a8.09,8.09,0,0,1,1.55-1.13,10.84,10.84,0,0,1,1.75-.84,14.1,14.1,0,0,1,1.88-.55,15.82,15.82,0,0,1,2-.25,12.8,12.8,0,0,1,7.81,2.28,15.24,15.24,0,0,1,4.87,6.31,23.69,23.69,0,0,1,1.05,3.69,24.06,24.06,0,0,1,.13,3.79,26.75,26.75,0,0,1-2.1-3c-.74-.93-1.35-1.9-2-2.79a25.25,25.25,0,0,0-4.42-4.46,15.86,15.86,0,0,0-5.56-2.43c-.52-.13-1.06-.18-1.6-.3s-1.12-.15-1.69-.18A35.29,35.29,0,0,0,3340.13,1251.6Z"/><path class="cls-16" d="M3280.91,1232.12a10,10,0,0,1,5.88-3.31,11.06,11.06,0,0,1,7.09,1.07,12.75,12.75,0,0,1,5,5,12.87,12.87,0,0,1,1.64,6.46,24.25,24.25,0,0,1-2.25-2.32c-.77-.7-1.4-1.46-2.1-2.11a22,22,0,0,0-4.26-3.2,14.47,14.47,0,0,0-4.94-1.51A31.67,31.67,0,0,0,3280.91,1232.12Z"/><path class="cls-10" d="M3854.85,1817.29c-6.3-21.49-5.45-45-.21-70a47.06,47.06,0,0,0-12,1s-425.42,259.4-217.9,363.16c84.12,42.06,194.66,83.26,296.39,120.16C3937.81,2099.44,3881.52,1908.28,3854.85,1817.29Z"/><ellipse class="cls-12" cx="3412.46" cy="1313.55" rx="14.99" ry="7.21" transform="translate(221.64 3099.32) rotate(-50.29)"/><polygon class="cls-21" points="2069.78 719.42 2089.01 764.49 2054.94 764.49 2069.78 719.42"/><path class="cls-22" d="M1703.77,803.13H1736a0,0,0,0,1,0,0V842.7a16.12,16.12,0,0,1-16.12,16.12h0a16.12,16.12,0,0,1-16.12-16.12V803.13A0,0,0,0,1,1703.77,803.13Z"/><path class="cls-22" d="M2046.71,803.13h32.24a0,0,0,0,1,0,0V842.7a16.12,16.12,0,0,1-16.12,16.12h0a16.12,16.12,0,0,1-16.12-16.12V803.13a0,0,0,0,1,0,0Z"/><polyline class="cls-6" points="1838.39 574.88 1880.71 569.93 1941.71 765.03 1870.82 765.03 1836.19 575.43"/><path class="cls-5" d="M1782.89,576.53c1.64-.55,51.11-9.9,51.11-9.9l57.15,188.51L1845,764.48Z"/><path class="cls-10" d="M1697.42,609h34.09A13.46,13.46,0,0,1,1745,622.41v141a0,0,0,0,1,0,0h-61a0,0,0,0,1,0,0v-141A13.46,13.46,0,0,1,1697.42,609Z"/><path class="cls-22" d="M1818.84,764.37l-60.51.11L1732.15,563a13.49,13.49,0,0,1,12.72-15.22l33.44-1.65a13.49,13.49,0,0,1,14,11.76Z"/><path class="cls-10" d="M1985.31,625.3l-35.55,128.89a7.26,7.26,0,0,0,7,9.2H2055a7.28,7.28,0,0,0,7-5.2l38-128.42a7.26,7.26,0,0,0-6.93-9.32L1992.31,620A7.24,7.24,0,0,0,1985.31,625.3Z"/><path class="cls-1" d="M1997.3,641.05l-24.79,98.31c-.89,3.53,1.54,7,4.89,7h68.49a5.14,5.14,0,0,0,4.86-4l26.51-97.95c1-3.54-1.45-7.1-4.83-7.11l-70.25-.37A5.13,5.13,0,0,0,1997.3,641.05Z"/><rect class="cls-14" x="1667.13" y="760.63" width="452.12" height="46.17" rx="23.08"/><rect class="cls-14" x="1667.13" y="760.63" width="452.12" height="46.17" rx="23.08"/><rect class="cls-1" x="1683.98" y="657.31" width="61" height="4.95"/><rect class="cls-1" x="1683.98" y="666.66" width="61" height="4.95"/><path class="cls-22" d="M976.16,1085.24h40.65a0,0,0,0,1,0,0v49.89a20.32,20.32,0,0,1-20.32,20.32h0a20.32,20.32,0,0,1-20.32-20.32v-49.89A0,0,0,0,1,976.16,1085.24Z"/><path class="cls-22" d="M1408.53,1085.24h40.65a0,0,0,0,1,0,0v49.89a20.32,20.32,0,0,1-20.32,20.32h0a20.32,20.32,0,0,1-20.32-20.32v-49.89A0,0,0,0,1,1408.53,1085.24Z"/><rect class="cls-14" x="929.97" y="1031.66" width="570.02" height="58.2" rx="29.1"/><rect class="cls-14" x="929.97" y="1031.66" width="570.02" height="58.2" rx="29.1"/><path class="cls-23" d="M1393.12,608.62c0-2.54,73-77.65,27.5-157.72-15.42-21-80.57-15.43-108.61,76.25-4.8,15.72-12.57,35.6-23.1,48.57-11.26,13.85-22.33,2.72-36.14,9.42-4.3,2.09-7.65,5.77-10.2,9.82-22.38,35.48-6.93,91.63,25.22,115.46,55.38,41,122.79.68,119-45.86S1393.12,608.62,1393.12,608.62Z"/><path class="cls-20" d="M1215.9,911.09c8.38-38.89,18.12-77.5,28.86-115.82,5.31-19.18,11-38.25,16.88-57.28s12.15-37.92,18.66-56.74,13.47-37.49,20.85-56c3.71-9.24,7.52-18.45,11.5-27.59s8-18.24,12.4-27.22A484.14,484.14,0,0,1,1353.83,518a256.83,256.83,0,0,1,17.63-24.19c1.64-1.89,3.26-3.79,4.94-5.63l2.57-2.72,1.29-1.35,1.35-1.3,2.71-2.57,2.84-2.44,1.42-1.21c.48-.4,1-.76,1.49-1.14l3-2.24-2.86,2.4c-.47.4-1,.78-1.42,1.2l-1.35,1.29-2.69,2.57-2.56,2.7-1.28,1.34-1.23,1.39-2.44,2.8c-1.6,1.9-3.13,3.85-4.67,5.78A252.06,252.06,0,0,0,1356,519.36c-5.1,8.49-9.87,17.19-14.35,26s-8.81,17.76-12.92,26.79q-12.26,27.11-23,54.89T1285.24,683c-6.59,18.73-12.82,37.6-18.89,56.51s-11.92,37.9-17.69,56.92-11.32,38.1-16.75,57.22q-4.14,14.32-8.13,28.7Z"/><path class="cls-23" d="M1093.93,594c-1.73-.79-29.61-74.26-98.46-68.71-19.19,3.8-36,49.86,17.37,98,9.16,8.25,20.21,19.83,25.68,31.1,5.84,12-5.23,16-5.06,27.55a19.4,19.4,0,0,0,3.44,10c17,26.46,60.07,33.77,86.46,19.48,45.45-24.62,39.4-83.22,6.58-95.42S1093.93,594,1093.93,594Z"/><path class="cls-20" d="M1005.71,553.65a143.77,143.77,0,0,1,22.21,13.71,232.18,232.18,0,0,1,20.2,16.6,302.93,302.93,0,0,1,35,38.89,357,357,0,0,1,28.27,44.07,424,424,0,0,1,22,47.52l4.55,12.28c1.47,4.11,2.81,8.26,4.21,12.39l1,3.11.95,3.12,1.9,6.25,3.83,12.48c5.1,16.61,10.25,33.23,15.11,49.93s9.71,33.41,14.32,50.19c2.24,8.4,4.46,16.82,6.52,25.27q1.56,6.35,3,12.72l.66,3.2.59,3.21c.2,1.06.34,2.15.51,3.22a13.65,13.65,0,0,1,.17,3.25,13.56,13.56,0,0,0-.31-3.23c-.21-1.06-.39-2.13-.64-3.19l-.73-3.17-.8-3.16q-1.59-6.33-3.35-12.6c-2.32-8.37-4.8-16.7-7.31-25q-7.44-25-15.3-49.85l-15.73-49.74c-2.71-8.28-5.07-16.62-7.8-24.85-1.42-4.1-2.76-8.22-4.23-12.29l-4.55-12.17c-12.51-32.29-28.74-63.19-49.07-91.24a302.73,302.73,0,0,0-33.94-39.27,234.09,234.09,0,0,0-19.55-17.14c-3.4-2.69-6.93-5.22-10.51-7.67A114.68,114.68,0,0,0,1005.71,553.65Z"/><path class="cls-23" d="M1015.42,741.78c-1.46.3-52.84-33.42-93.89,1.7-10.4,11.22.08,48.11,56,54.07,9.58,1,21.89,3.28,30.53,7.9,9.23,4.95,4.05,12.56,9.45,19.77a15.23,15.23,0,0,0,6.79,4.78c22.92,8.94,53.54-6.2,63.68-27.36,17.48-36.45-13.25-70.79-39.64-63.44S1015.42,741.78,1015.42,741.78Z"/><path class="cls-20" d="M941.06,756.76a112.65,112.65,0,0,1,20.35-1.52,185.71,185.71,0,0,1,20.41,1.24,235.93,235.93,0,0,1,40,8.58A278.76,278.76,0,0,1,1060,780a329.68,329.68,0,0,1,35.73,20l8.52,5.69c2.81,1.92,5.57,3.94,8.35,5.91,1.4,1,2.77,2,4.12,3l4.07,3.09,8.16,6.14c10.85,8.18,21.74,16.33,32.49,24.68s21.48,16.7,32.1,25.2c5.28,4.29,10.55,8.6,15.73,13q3.9,3.3,7.71,6.7c1.26,1.14,2.51,2.3,3.73,3.48a23.11,23.11,0,0,1,3.41,3.79,24,24,0,0,0-3.56-3.63q-1.9-1.7-3.87-3.31-3.9-3.27-7.9-6.43c-5.32-4.24-10.71-8.38-16.12-12.5q-16.18-12.41-32.58-24.54L1127.25,826c-5.52-4-10.84-8.2-16.35-12.15-2.77-2-5.52-3.94-8.32-5.85l-8.46-5.61a316.17,316.17,0,0,0-73-35.25,237.84,237.84,0,0,0-39.52-9.28A182.94,182.94,0,0,0,961.39,756c-3.39-.14-6.78-.12-10.18,0A88.57,88.57,0,0,0,941.06,756.76Z"/><path class="cls-23" d="M1468.58,767.18c1-2.35,97.24-43.68,85.92-135.1-6.16-25.34-68.48-45.16-129.56,28.74-10.47,12.66-25.26,28-40,36-15.71,8.47-21.66-6.06-37-5.17-4.77.27-9.28,2.4-13.18,5.15-34.28,24.18-41.57,82-21,116.3,35.38,59.15,113.12,47.76,127.5,3.33S1468.58,767.18,1468.58,767.18Z"/><path class="cls-20" d="M1260.41,910.28c8-13.64,16.59-26.94,25.31-40.15s17.76-26.2,27-39,18.8-25.48,28.55-38,19.87-24.68,30.21-36.69,21.1-23.67,32.2-35,22.64-22.25,34.78-32.5a314.09,314.09,0,0,1,38.38-28.19A187.47,187.47,0,0,1,1498,649.64a117.76,117.76,0,0,1,22.52-7.53c-1.88.61-3.78,1.16-5.64,1.82s-3.72,1.32-5.53,2.11c-3.64,1.49-7.23,3.12-10.73,4.91a195.91,195.91,0,0,0-20.3,12c-6.56,4.34-12.88,9-19,13.92s-12.19,9.95-18.07,15.18-11.59,10.64-17.26,16.1-11.18,11.09-16.63,16.77q-16.4,17-31.81,35c-10.36,11.88-20.41,24-30.29,36.33S1325.62,821,1316,833.53Q1287.43,871.29,1260.41,910.28Z"/><path class="cls-23" d="M1454.51,937.28c1.64-.73,70.82,25.36,109.78-26.66,9.27-15.91-12.73-56.47-79.94-48.77-11.51,1.32-26.56,1.9-37.92-1.26-12.14-3.38-8-13.67-16.28-20.72a18.25,18.25,0,0,0-9.23-3.83c-29.26-4.48-61.23,21.34-67.58,48.86-10.94,47.39,34.16,79.62,63.21,64.06S1454.51,937.28,1454.51,937.28Z"/><path class="cls-20" d="M1278.65,908.21c21.54-5.86,43.37-10.65,65.35-14.65,11-2,22-3.76,33.09-5.33s22.18-2.83,33.31-3.88c22.27-2,44.7-3,67.08-1.56a221.21,221.21,0,0,1,33.31,4.45,134.83,134.83,0,0,1,16.15,4.66c2.64,1,5.23,2,7.77,3.19,1.27.58,2.5,1.27,3.74,1.89s2.43,1.4,3.63,2.09c-9.92-5.13-20.73-8.14-31.64-10.06-5.46-1-11-1.7-16.49-2.22s-11.07-.91-16.61-1.12q-16.65-.57-33.32.13T1410.74,888c-11.09,1-22.15,2.23-33.19,3.65s-22.06,3-33.07,4.71-22,3.58-33,5.56S1289.59,906,1278.65,908.21Z"/><path class="cls-23" d="M1252.74,736.33c-.39-1.11,20.36-45.17-11.75-73.48-10-6.92-37.75,5.4-36.21,49.93.26,7.63-.15,17.55-2.82,24.84-2.85,7.79-9.4,4.57-14.46,9.6a12,12,0,0,0-3,5.86c-4.48,19,10.8,41.32,28.53,46.94,30.55,9.66,54.08-18.26,45.38-38.15S1252.74,736.33,1252.74,736.33Z"/><path class="cls-20" d="M1226.14,690c-3.74,18.84-6.62,37.81-9.15,56.81s-4.5,38.08-5.84,57.19l-.56,7.16c-.19,2.39-.27,4.79-.42,7.18l-.77,14.35-.48,14.36c-.07,2.39-.2,4.79-.21,7.18l-.07,7.19c0,4.79-.14,9.58-.12,14.38l.22,14.38c0,2.39,0,4.79.09,7.19l.3,7.19q.33,7.19.55,14.39a555.4,555.4,0,0,1-3.6-57.53l-.12-7.21c0-2.41.07-4.81.09-7.22l.25-14.42c.19-4.81.46-9.61.68-14.41.13-2.4.21-4.81.38-7.21l.53-7.19c.67-9.6,1.67-19.16,2.68-28.73l1.81-14.31c.62-4.77,1.38-9.51,2.09-14.27s1.57-9.49,2.38-14.22,1.78-9.45,2.7-14.17,2-9.4,3.09-14.08S1224.87,694.63,1226.14,690Z"/><rect class="cls-4" x="1014.04" y="916.64" width="413.89" height="114.56" rx="42.5"/><path class="cls-16" d="M1385.43,916.64H1056.54a42.49,42.49,0,0,0-42.5,42.49v5.55h413.89v-5.55A42.49,42.49,0,0,0,1385.43,916.64Z"/><path class="cls-23" d="M937.37,867.85c-1.51,1.16-79.5-8.44-106.7,55.06-5.58,18.74,27.3,55.12,94.79,30.32,11.56-4.25,27-8.62,39.48-8.2,13.38.45,11.74,12.1,22,17.32A19.5,19.5,0,0,0,997.44,964c31.34-2.71,57.89-37.39,57.55-67.4-.58-51.68-55.24-73.67-81.34-50.32S937.37,867.85,937.37,867.85Z"/><path class="cls-20" d="M869.87,910.3c4.82-3,9.82-5.67,14.89-8.2s10.22-4.93,15.42-7.19a297,297,0,0,1,32.05-11.56,277.16,277.16,0,0,1,33.24-7.71,248.25,248.25,0,0,1,34-3.24q8.55-.17,17.11.29c5.69.35,11.38.88,17,1.68a188.77,188.77,0,0,1,33.28,7.85c5.4,1.82,10.72,3.9,15.93,6.2s10.29,4.88,15.22,7.72c1.25.68,2.46,1.44,3.67,2.17s2.44,1.46,3.63,2.24c2.37,1.56,4.77,3.07,7.07,4.74,4.69,3.2,9.11,6.77,13.45,10.4A198,198,0,0,0,1066,885c-5.37-1.62-10.79-3.08-16.28-4.27s-11-2.15-16.58-2.86-11.15-1.23-16.76-1.54-11.22-.33-16.83-.2a279.2,279.2,0,0,0-66.55,10q-16.31,4.44-32.15,10.47A287,287,0,0,0,869.87,910.3Z"/><path class="cls-23" d="M1078,955.33c.24,1.89-47.51,64.28-6.52,119.88,13.34,14.31,61.36,4.36,74.13-66.39,2.19-12.13,6.21-27.62,12.91-38.21,7.16-11.31,16.39-4,26.08-10.21a19.46,19.46,0,0,0,6.72-8.22c13.53-28.4-2.94-68.85-29-83.75-44.87-25.66-91.5,10.36-84.57,44.68S1078,955.33,1078,955.33Z"/><path class="cls-20" d="M1080.45,1035q9.24-40.69,21.81-80.57c8.41-26.53,17.75-52.85,29.74-78.12,3-6.3,6.26-12.51,9.83-18.56a123.23,123.23,0,0,1,12-17.37,56.83,56.83,0,0,1,7.66-7.53,30.93,30.93,0,0,1,4.55-3.06,21.69,21.69,0,0,1,5.19-2.12,16.63,16.63,0,0,1,5.72-.47,16.36,16.36,0,0,1,5.52,1.56,20.58,20.58,0,0,1,4.64,3.11,31.2,31.2,0,0,1,3.79,3.93c4.53,5.63,7.61,12.06,10.24,18.55a187,187,0,0,1,6.5,19.94c1.79,6.74,3.3,13.55,4.66,20.38q1,5.12,1.92,10.26c.58,3.43,1.12,6.86,1.64,10.3-2.86-13.61-5.87-27.19-10-40.44a185.36,185.36,0,0,0-7-19.51c-2.75-6.29-5.89-12.5-10.21-17.63a28.28,28.28,0,0,0-3.52-3.49,17.6,17.6,0,0,0-4-2.6,13,13,0,0,0-9.09-.76,23.4,23.4,0,0,0-8.45,4.68,52.24,52.24,0,0,0-7.1,7.16,123.34,123.34,0,0,0-11.6,16.94c-3.47,5.94-6.63,12.09-9.62,18.33-6,12.45-11.29,25.28-16.27,38.22s-9.59,26-14.06,39.19-8.67,26.4-12.73,39.68S1084.25,1021.64,1080.45,1035Z"/><path class="cls-23" d="M1339.81,945.62c-.24,1.89,47.51,64.29,6.52,119.89-13.34,14.31-61.37,4.36-74.13-66.39C1270,987,1266,971.5,1259.29,960.91c-7.16-11.31-16.39-4-26.08-10.21a19.55,19.55,0,0,1-6.73-8.22c-13.52-28.4,3-68.85,29-83.75,44.87-25.66,91.5,10.36,84.57,44.68S1339.81,945.62,1339.81,945.62Z"/><path class="cls-20" d="M1337.35,1025.32c-2.23-12.89-4.6-25.76-7.31-38.55s-5.5-25.56-8.64-38.24-6.56-25.27-10.53-37.69A299,299,0,0,0,1297,874.39a133.82,133.82,0,0,0-9.26-17,57.31,57.31,0,0,0-12.5-14.21,25,25,0,0,0-8.09-4.24,18.41,18.41,0,0,0-8.91-.35,25.67,25.67,0,0,0-8.47,3.56,45.47,45.47,0,0,0-7.41,5.93,96,96,0,0,0-12.19,15c-3.63,5.38-6.94,11-10,16.74-6.25,11.45-11.58,23.41-16.74,35.44,1.12-3.08,2.24-6.15,3.4-9.21s2.4-6.1,3.66-9.12c2.52-6,5.19-12,8.07-17.94a193.83,193.83,0,0,1,9.62-17.23,95.23,95.23,0,0,1,12.19-15.7,47.56,47.56,0,0,1,7.76-6.48,28.4,28.4,0,0,1,9.47-4.12,21.58,21.58,0,0,1,10.5.27,28.16,28.16,0,0,1,9.27,4.69c5.5,4.13,9.73,9.48,13.41,15a137.45,137.45,0,0,1,9.6,17.41,295.89,295.89,0,0,1,13.82,37q5.7,18.87,10,38.07A734.9,734.9,0,0,1,1337.35,1025.32Z"/><path class="cls-24" d="M1184.59,1911.91c-.51,4.63-3.64,43.68-3.64,43.68"/><line class="cls-24" x1="1245.55" y1="1829.09" x2="1207.34" y2="1958.32"/><path class="cls-24" d="M1132.73,1849.11c.91,2.73,31.84,60.07,33.66,109.21"/><path class="cls-24" d="M1018.08,1711.73s91,87.35,134.66,248.41"/><rect class="cls-4" x="890.08" y="2222.58" width="639.36" height="89.41" rx="31.71"/><path class="cls-16" d="M927.51,2305.75c.87,4.37,15.69,173.2,20.41,227A17.84,17.84,0,0,0,965.71,2549h0a17.88,17.88,0,0,0,17.74-15.75l28.27-236.88Z"/><path class="cls-16" d="M1372.45,2305.75c.87,4.37,15.69,173.2,20.4,227a17.85,17.85,0,0,0,17.8,16.29h0a17.88,17.88,0,0,0,17.74-15.75l28.27-236.88Z"/><path class="cls-16" d="M890.08,2261.56v18.72A31.71,31.71,0,0,0,921.79,2312h575.94a31.71,31.71,0,0,0,31.71-31.71v-18.72Z"/><path class="cls-20" d="M1322,1607.1s12.74-136.49-189.25-96.45l-20,34.57s90.53-18.19,109.64,40.49c-28.66-20.47-77.8-32.75-122.84-17.74-19.1,25.93-38.21,64.15-38.21,64.15s111.92-40.95,129.66,2.73c-41-13.65-113.28,1.36-133.76,28.66l-1.36,64.15s101-66.88,139.21-39.58c-32.75,1.36-111.91,36.85-116,60.05a344.59,344.59,0,0,0,0,71s58.69-95.54,129.66-81.89c0,8.19-103.73,45-98.27,105.09,5.46,41,42.31,49.14,42.31,49.14s27.3-92.81,58.69-91.45c10.92,2.73-8.19,20.48-19.11,36.86s-38.21,57.32,0,80.52c2.73-10.92,24.57-61.42,39.58-57.32,12.29,6.82-31.39,35.48-19.1,51.86s30,34.12,30,34.12l58.69-34.12s-13.65-71-4.09-64.15,13.65,56,13.65,56,34.12-17.74,39.58-35.48c-8.19-20.48-43.68-114.65-32.76-105.1s39.58,94.18,39.58,94.18,30-30,23.2-69.61c-21.84-32.76-43.67-90.08-25.93-72.34s39.58,79.17,39.58,79.17,50.5-39.59,31.39-109.19c-30-24.57-57.32-51.87,1.37-24.57C1425.71,1633.48,1398.42,1515.2,1322,1607.1Z"/><path class="cls-23" d="M1322,1607.1c-.35,13.87-1.44,27.68-2.61,41.48s-2.8,27.56-4.58,41.3q-5.4,41.2-13.9,82c-1.49,6.77-2.94,13.56-4.54,20.31s-3.27,13.49-5,20.22c-3.55,13.42-7.39,26.78-11.71,40s-9.2,26.27-14.73,39-11.72,25.29-19.38,36.88a403.32,403.32,0,0,0,14.36-38.78c4.19-13.09,8-26.3,11.52-39.58s6.76-26.64,9.88-40c1.5-6.72,3.11-13.4,4.53-20.13s2.92-13.45,4.37-20.17c5.66-26.94,11-54,16.13-81.08S1316.59,1634.28,1322,1607.1Z"/><path class="cls-23" d="M1065.39,1275.89s-86-68.24-172,61.42l4.1,61.42s31.39-64.15,61.41-45c1.37,19.11-20.47,28.66-46.4,47.77s9.55,66.88,23.2,76.43c-1.36-21.84,27.3-81.89,68.24-72.34,15,17.75-61.41,30-56,77.8s42.31,124.2,124.2,147.4c83.25-31.39,95.54-111.91,80.52-141.94s-25.93-86-6.82-56,27.3,83.26,27.3,83.26,49.13-17.75,42.31-58.69-41-116-1.37-80.53c35.49,38.22,17.74,69.61,17.74,69.61s43.68-39.58,21.84-87.35-57.32-56-32.75-49.14,36.85,32.76,36.85,32.76,15-30-34.12-60S1113.16,1221.3,1065.39,1275.89Z"/><path class="cls-20" d="M1065.39,1275.89c3.06,27.69,5,55.41,6.67,83.14s2.76,55.47,3.57,83.22,1.22,55.51,1.22,83.29-.43,55.56-1.9,83.38c-3.07-27.69-5-55.41-6.68-83.14s-2.77-55.47-3.56-83.22-1.21-55.51-1.2-83.29S1063.93,1303.71,1065.39,1275.89Z"/><path class="cls-20" d="M924.36,1595.27s-4.55-35.49-33.67-38.22l-29.11-2.73s25.47,54.6,11.82,50-11.82-50-29.11-48.23c-43.68,31.85-41.86,30-41.86,30s50.05,12.74,44.59,26.39-30-15.47-48.23-14.56c-14.56,7.28-21.83,53.68-21.83,53.68s65.51-12.74,63.69,6.37c-6.37,16.38-69.15,10.92-69.15,10.92s-6.37,48.22,18.19,70.06c9.1-17.29,58.24-32.75,56.42-22.75-12.74,11.83-41.86,39.13-37.31,51.87l23.66,50,66.42-24.56s-22.75-81.9,0-59.15,16.38,58.24,16.38,58.24,48.22-17.29,58.23-39.13c-8.19-26.39-.91-68.24,13.65-36.4,11.83,31.85,5.46,33.67,5.46,33.67s33.67-29.12,26.39-60c-29.12-26.39-39.13-74.61-13.65-50,25.48,28.21,24.57,53.69,24.57,53.69s31.84-45.5,14.56-83.71S958.93,1549.77,924.36,1595.27Z"/><path class="cls-23" d="M924.36,1595.27q-7.75,10.8-14.85,21.83t-13.69,22.31q-6.54,11.29-12.44,22.86c-3.93,7.72-7.65,15.53-11,23.49l-1.3,3-1.21,3c-.79,2-1.66,4-2.39,6l-2.3,6c-.74,2-1.39,4.08-2.13,6.11L862,1713l-1,3.08c-.62,2.07-1.35,4.11-1.94,6.18-1.18,4.15-2.43,8.29-3.44,12.5s-2,8.42-3,12.65c-.44,2.12-.8,4.26-1.22,6.39l-.63,3.21-.5,3.22c-1.57,8.6-2.3,17.31-3.29,26.16-.36-2.19-.63-4.39-.95-6.6l-.4-3.31-.25-3.33c-.17-2.22-.28-4.44-.42-6.68l0-6.69,0-3.36.17-3.34c.12-2.23.24-4.47.41-6.71l.72-6.68c.22-2.23.58-4.44.94-6.66a198.38,198.38,0,0,1,6-26.24c.65-2.15,1.3-4.3,2-6.43l2.2-6.36c.73-2.12,1.62-4.18,2.42-6.28l1.23-3.13,1.32-3.09c.91-2,1.77-4.12,2.74-6.14l2.88-6.07c2.06-4,4.07-8,6.3-11.86a260.18,260.18,0,0,1,14.36-22.62,246.83,246.83,0,0,1,16.64-20.91c3-3.32,6-6.56,9.19-9.67A130.63,130.63,0,0,1,924.36,1595.27Z"/><path class="cls-23" d="M1379.31,1372.34s-80.07-20.92-77.34,34.58c6.37,61,63.69,84.62,63.69,84.62s1.82-69.15,25.48-64.6c10,12.74-26.39,38.21-5.46,61.87,36.39,22.75,91.9,21.84,91.9,21.84s34.57-57.33,15.46-78.25-51.86-48.23-20.92-33.67l30.93,14.56S1433.9,1267.7,1379.31,1372.34Z"/><path class="cls-20" d="M1379.31,1372.34a78.48,78.48,0,0,1,9.87,3.34c3.24,1.28,6.4,2.74,9.51,4.31a143.32,143.32,0,0,1,17.93,10.8,147.39,147.39,0,0,1,30.58,28.93,141.94,141.94,0,0,1,11.77,17.63c.87,1.54,1.64,3.14,2.46,4.7l1.21,2.36,1.07,2.43c.71,1.62,1.45,3.22,2.11,4.86l1.84,5c.65,1.64,1.11,3.35,1.62,5s1.07,3.35,1.43,5.07l1.17,5.14c.41,1.7.62,3.45.91,5.18s.57,3.44.71,5.19.29,3.48.39,5.22a103.29,103.29,0,0,1,0,10.41c-.56-1.66-1-3.32-1.53-5s-.9-3.3-1.5-4.91-1.06-3.24-1.59-4.84-1.16-3.19-1.73-4.78c-1.07-3.19-2.44-6.27-3.68-9.37-.62-1.55-1.38-3-2.05-4.57s-1.35-3-2.12-4.51a194,194,0,0,0-9.68-17.34c-.93-1.37-1.8-2.77-2.7-4.15s-1.89-2.71-2.83-4.07l-1.41-2-1.49-2c-1-1.31-2-2.66-3-3.93a234.26,234.26,0,0,0-27.33-29c-5-4.5-10.14-8.8-15.46-13S1385,1376.26,1379.31,1372.34Z"/><path class="cls-23" d="M1498.5,1552.5s-68.24-20.93-65.51,42.77l14.56,53.68s15.47-47.31,28.21-30.93c-1.82,20.92-20.93,34.57.91,49.13l21.83,14.56s9.1-52.78,17.29-34.58-17.29,40,11.83,44.59,63.69-1.82,63.69-1.82,24.57-79.16,9.1-91.9-24.56-35.49-5.46-27.3l17.29,6.37S1549.46,1452.41,1498.5,1552.5Z"/><path class="cls-20" d="M1498.5,1552.5a51,51,0,0,1,4.91,1.59c1.6.63,3.18,1.31,4.75,2a90.9,90.9,0,0,1,9.16,4.83,121.29,121.29,0,0,1,16.82,12.17,145.54,145.54,0,0,1,27.1,31.51,168.19,168.19,0,0,1,10,18.25,160.74,160.74,0,0,1,7.5,19.32,149.83,149.83,0,0,1,7.12,40.43c-4.86-12.8-9.63-25.29-15.14-37.36-1.32-3-2.83-6-4.23-9-.68-1.51-1.51-2.94-2.24-4.41s-1.45-3-2.28-4.38-1.57-2.89-2.36-4.33-1.65-2.84-2.46-4.27c-1.59-2.87-3.39-5.61-5.1-8.41a232.31,232.31,0,0,0-23.85-31.23c-4.43-4.88-9.13-9.54-14-14A162.54,162.54,0,0,0,1498.5,1552.5Z"/><path class="cls-20" d="M1306.52,1430.58c-4.9,6.59-9.68,12.74-14.24,19s-8.89,12.47-12.81,18.89a151.4,151.4,0,0,0-10.33,20c-1.52,3.46-2.74,7-4,10.72s-2.12,7.5-3.24,11.5a49.31,49.31,0,0,1-1-24.68,70.77,70.77,0,0,1,9.24-23.18,85.94,85.94,0,0,1,15.79-19,83.68,83.68,0,0,1,9.68-7.53A55.89,55.89,0,0,1,1306.52,1430.58Z"/><path class="cls-20" d="M1479.4,1548c-7.38-3.26-14.74-6.31-22.17-9.11s-14.86-5.39-22.38-7.59c-15-4.41-30.3-7.46-45.4-7.31a84.83,84.83,0,0,0-11.19.84,72.35,72.35,0,0,0-10.86,2.33,64.91,64.91,0,0,0-19.79,9.84,77.26,77.26,0,0,0-8.52,7.42,94.74,94.74,0,0,0-7.49,8.77l-1.7,2.38-.86,1.19-.8,1.23-1.62,2.46-1.54,2.54c-2.08,3.38-3.91,6.93-5.83,10.49.4-2,.83-4,1.32-5.92s1.07-3.92,1.75-5.84a84.07,84.07,0,0,1,4.72-11.36,80.15,80.15,0,0,1,6.59-10.6,71.26,71.26,0,0,1,8.52-9.39,65,65,0,0,1,22-13,76,76,0,0,1,12.45-3.15,91.71,91.71,0,0,1,12.68-1.1c16.94-.14,33.27,4,48.38,10.16a169.68,169.68,0,0,1,21.86,10.85c3.49,2.06,6.91,4.22,10.23,6.55,1.65,1.16,3.3,2.34,4.91,3.55S1477.89,1546.61,1479.4,1548Z"/><path class="cls-15" d="M1025.23,1952.84h299.59a19,19,0,0,1,18.47,23.44l-56.63,235.34a19,19,0,0,1-18.47,14.55h-181a19,19,0,0,1-18.37-14.16l-61.93-235.34A19,19,0,0,1,1025.23,1952.84Z"/><path class="cls-4" d="M1324.82,1952.84H1025.23a19,19,0,0,0-18.37,23.83l18.6,70.71h300.72l17.11-71.1A19,19,0,0,0,1324.82,1952.84Z"/></g></svg>